<svg
                  width="275"
                  height="246"
                  viewBox="0 0 275 246"
                  fill="none"
                  xmlns="http://www.w3.org/2000/svg"
                >
                  <g id="circle">
                    <path
                      d="M253 126.5C253 102.492 246.168 78.9805 233.303 58.711C220.438 38.4416 202.07 22.2516 180.346 12.0324C158.622 1.81329 134.439 -2.013 110.621 1.00057C86.8033 4.01413 64.3349 13.7431 45.8407 29.0509C27.3465 44.3587 13.5901 64.6132 6.17873 87.4482C-1.23265 110.283 -1.99303 134.756 3.98643 158.007C9.96589 181.258 22.4383 202.327 39.9465 218.754C57.4547 235.18 79.2758 246.285 102.86 250.772L113.707 193.751C100.944 191.323 89.1352 185.314 79.6604 176.424C70.1856 167.535 63.436 156.133 60.2001 143.55C56.9643 130.968 57.3758 117.724 61.3865 105.367C65.3973 93.0091 72.8417 82.0481 82.8501 73.7641C92.8585 65.4801 105.018 60.2151 117.907 58.5843C130.796 56.9535 143.883 59.0241 155.64 64.5543C167.396 70.0846 177.336 78.846 184.298 89.8151C191.26 100.784 194.957 113.508 194.957 126.5H253Z"
                      fill="#280E71"
                    />
                  </g>
                  <g id="circle1">
                    <path
                      d="M80.915 26.9061C61.9528 35.6183 45.8613 49.5466 34.5203 67.0637C23.1794 84.5809 17.0573 104.964 16.8693 125.831C16.6813 146.698 22.4352 167.187 33.4587 184.906C44.4823 202.625 60.3203 216.841 79.1225 225.893C97.9247 234.945 118.915 238.46 139.64 236.028C160.366 233.595 179.971 225.314 196.166 212.154C212.361 198.993 224.476 181.496 231.097 161.706C237.717 141.917 238.57 120.651 233.555 100.395L164.881 117.398C166.67 124.621 166.366 132.204 164.005 139.261C161.644 146.318 157.324 152.557 151.549 157.25C145.774 161.943 138.783 164.896 131.392 165.763C124.002 166.631 116.517 165.377 109.812 162.149C103.108 158.921 97.4599 153.852 93.529 147.534C89.5981 141.215 87.5463 133.909 87.6133 126.468C87.6804 119.027 89.8634 111.759 93.9075 105.512C97.9516 99.2657 103.69 94.299 110.451 91.1923L80.915 26.9061Z"
                      fill="#86D1FF"
                    />
                  </g>
                  <g id="circle">
                    <path
                      d="M62.3483 143.405C65.4956 155.641 72.0598 166.728 81.274 175.372C90.4882 184.016 101.972 189.86 114.384 192.22C126.795 194.581 139.623 193.361 151.367 188.702C163.111 184.044 173.287 176.14 180.706 165.914C188.125 155.687 192.481 143.561 193.264 130.951C194.048 118.341 191.227 105.769 185.132 94.7021C179.036 83.6357 169.917 74.5324 158.84 68.4557C147.764 62.379 135.186 59.5797 122.578 60.385L125.278 102.668C129.862 102.375 134.435 103.393 138.462 105.602C142.489 107.811 145.804 111.121 148.02 115.144C150.237 119.167 151.262 123.738 150.977 128.323C150.692 132.907 149.109 137.316 146.411 141.033C143.714 144.751 140.014 147.625 135.745 149.319C131.475 151.012 126.812 151.456 122.299 150.598C117.787 149.739 113.612 147.615 110.262 144.472C106.912 141.33 104.526 137.299 103.381 132.85L62.3483 143.405Z"
                      fill="#74BDE0"
                    />
                  </g>
                </svg>