 <svg
                  width="275"
                  height="246"
                  viewBox="0 0 275 246"
                  fill="none"
                  xmlns="http://www.w3.org/2000/svg"
                >
                  <g id="wave">
                    <path
                      d="M50 78C50 74.134 53.134 71 57 71H79C82.866 71 86 74.134 86 78V212C86 215.866 82.866 219 79 219H57C53.134 219 50 215.866 50 212V78Z"
                      fill="#280E71"
                    />
                  </g>
                  <g id="wave1">
                    <path
                      d="M0 7C0 3.13401 3.13401 0 7 0H29C32.866 0 36 3.13401 36 7V212C36 215.866 32.866 219 29 219H7C3.13401 219 0 215.866 0 212V7Z"
                      fill="#280E71"
                    />
                  </g>
                  <g id="wave2">
                    <path
                      d="M100 135C100 131.134 103.134 128 107 128H129C132.866 128 136 131.134 136 135V212C136 215.866 132.866 219 129 219H107C103.134 219 100 215.866 100 212V135Z"
                      fill="#280E71"
                    />
                  </g>
                  <g id="wave1">
                    <path
                      d="M150 78C150 74.134 153.134 71 157 71H179C182.866 71 186 74.134 186 78V212C186 215.866 182.866 219 179 219H157C153.134 219 150 215.866 150 212V78Z"
                      fill="#280E71"
                    />
                  </g>
                  <g id="wave">
                    <path
                      d="M200 172C200 168.134 203.134 165 207 165H229C232.866 165 236 168.134 236 172V212C236 215.866 232.866 219 229 219H207C203.134 219 200 215.866 200 212V172Z"
                      fill="#280E71"
                    />
                  </g>
                  <g id="wave2">
                    <path
                      d="M218 201C218 197.134 221.134 194 225 194H247C250.866 194 254 197.134 254 201V225C254 228.866 250.866 232 247 232H225C221.134 232 218 228.866 218 225V201Z"
                      fill="#86D1FF"
                    />
                  </g>
                  <g id="wave1">
                    <path
                      d="M168 145C168 141.134 171.134 138 175 138H197C200.866 138 204 141.134 204 145V225C204 228.866 200.866 232 197 232H175C171.134 232 168 228.866 168 225V145Z"
                      fill="#86D1FF"
                    />
                  </g>
                  <g id="wave">
                    <path
                      d="M118 113C118 109.134 121.134 106 125 106H147C150.866 106 154 109.134 154 113V225C154 228.866 150.866 232 147 232H125C121.134 232 118 228.866 118 225V113Z"
                      fill="#86D1FF"
                    />
                  </g>
                  <g id="wave2">
                    <path
                      d="M68 164C68 160.134 71.134 157 75 157H97C100.866 157 104 160.134 104 164V225C104 228.866 100.866 232 97 232H75C71.134 232 68 228.866 68 225V164Z"
                      fill="#86D1FF"
                    />
                  </g>
                  <g id="wave">
                    <path
                      d="M18 46C18 42.134 21.134 39 25 39H47C50.866 39 54 42.134 54 46V225C54 228.866 50.866 232 47 232H25C21.134 232 18 228.866 18 225V46Z"
                      fill="#86D1FF"
                    />
                  </g>
                  <g id="wave1">
                    <path
                      d="M89 199C89 195.134 92.134 192 96 192H118C121.866 192 125 195.134 125 199V239C125 242.866 121.866 246 118 246H96C92.134 246 89 242.866 89 239V199Z"
                      fill="#74BDE0"
                    />
                  </g>
                  <g id="wave2">
                    <path
                      d="M39 96C39 92.134 42.134 89 46 89H68C71.866 89 75 92.134 75 96V239C75 242.866 71.866 246 68 246H46C42.134 246 39 242.866 39 239V96Z"
                      fill="#74BDE0"
                    />
                  </g>
                  <g id="wave1">
                    <path
                      d="M139 162C139 158.134 142.134 155 146 155H168C171.866 155 175 158.134 175 162V239C175 242.866 171.866 246 168 246H146C142.134 246 139 242.866 139 239V162Z"
                      fill="#74BDE0"
                    />
                  </g>
                  <g id="wave">
                    <path
                      d="M189 215C189 211.134 192.134 208 196 208H218C221.866 208 225 211.134 225 215V239C225 242.866 221.866 246 218 246H196C192.134 246 189 242.866 189 239V215Z"
                      fill="#74BDE0"
                    />
                  </g>
                  <g id="wave2">
                    <path
                      d="M239 199C239 195.134 242.134 192 246 192H268C271.866 192 275 195.134 275 199V239C275 242.866 271.866 246 268 246H246C242.134 246 239 242.866 239 239V199Z"
                      fill="#74BDE0"
                    />
                  </g>
                </svg>