<svg width="100%" height="57" viewBox="0 0 429 57" fill="none" xmlns="http://www.w3.org/2000/svg">
<path d="M6.00003 56H406C396.829 46.2145 377.203 24.8187 372.067 17.5192C365.647 8.39495 349.139 17.5192 344.554 29.4205C339.968 41.3218 321.895 23.8378 307.221 23.8378C292.548 23.8378 281.273 34.5777 263.848 34.9744C246.423 35.3711 242.754 5.61796 230.832 0.460747C218.91 -4.69647 217.075 34.9744 192.313 42.9086C167.551 50.8428 159.297 23.4699 139.121 17.5192C118.945 11.5686 111.608 32.9909 81.3432 29.4205C51.0786 25.8501 53.8867 9.96492 47.9384 17.5192C34.1938 34.9744 17.6167 45.8178 6.00003 56Z" fill="#3B7197"/>
<path d="M0 57H429C421.152 48.3503 410.92 37.2053 406.205 31.5752C393.873 16.8507 393.499 46.8061 362.924 39.4385C353.962 37.2789 327.421 50.9714 311.641 50.9714C295.862 50.9714 294.876 42.846 276.138 43.1081C257.4 43.3702 253.455 23.7119 240.634 20.3044C227.814 16.897 225.841 43.1081 199.214 48.3503C172.586 53.5926 163.71 35.5069 142.014 31.5752C120.317 27.6435 107.691 50.7093 75.1464 48.3503C42.6016 45.9913 46.545 43.1081 36.9956 43.1081C30.6429 43.1081 0 45.6735 0 57Z" fill="#4A8DB7"/>
</svg>
