<svg width="1458" height="122" viewBox="0 0 1458 122" className="animated-svg" fill="none" xmlns="http://www.w3.org/2000/svg">
<g id="wave">
<path d="M337.863 77.7355C319.843 90.2377 330.14 94.2707 328.209 101.53L348.16 107.983C579.846 107.849 1051.2 107.66 1083.12 107.983C1122.79 108.384 1126.84 101.611 1130.68 95.1926L1130.75 95.0775C1134.61 88.6249 1093.42 13.2081 1083.12 1.91565C1072.82 -9.37677 1063.81 32.5664 1055.45 41.4389C1047.08 50.3113 1020.05 37.8092 1014.26 28.9366C1008.47 20.0641 999.456 24.097 990.446 37.8092C981.436 51.5213 965.347 41.4389 951.832 37.8092C938.317 34.1795 928.663 -0.50414 921.584 1.91565C914.505 4.33544 910.643 24.097 899.703 41.4389C888.762 58.7807 870.971 49.3024 865.593 41.4389C859.801 32.9696 848.217 28.9366 840.494 41.4389C832.771 53.9411 808.315 55.5543 796.731 55.5543C787.463 55.5543 783.859 24.9036 772.918 24.9036C772.918 24.9036 766.483 21.6773 759.403 32.9696C754.841 40.2476 746.532 52.7312 746.532 52.7312L736.878 64.0233C729.155 64.0233 723.749 56.1996 720.145 55.5543C715.64 54.7477 700.838 64.0233 683.462 64.0233C666.085 64.0233 665.442 55.5543 654.501 50.7146C643.56 45.875 624.897 64.0234 613.312 71.2829C601.728 78.5424 587.569 71.2829 579.203 64.0233C570.836 56.7638 559.896 64.0234 538.014 71.2829C516.133 78.5424 509.053 77.7355 491.033 77.7355C473.013 77.7355 451.132 30.5497 445.339 20.4673C439.547 10.3848 435.686 28.9365 422.171 50.7146C408.656 72.4927 389.349 65.2332 375.834 64.0233C362.318 62.8135 355.883 65.2332 337.863 77.7355Z" fill="#280E71"/>
</g>
<g id="wave1">
<path d="M276.713 108.93H308.075C607.849 109.022 1211.16 109.096 1226.21 108.654C1241.27 108.212 1238.76 102.393 1235.62 99.5389C1217.59 88.1222 1193.28 69.1557 1179.17 69.1557C1167.94 69.1557 1143.89 84.3473 1128.99 88.2142C1114.09 92.0812 1100.76 87.6618 1078.81 88.2142C1056.85 88.7667 1056.85 95.3958 1037.25 99.5389C1017.65 103.682 1001.19 100.091 983.937 99.5389C966.688 98.9865 958.063 96.2244 944.734 95.3958C931.405 94.5671 921.212 88.2142 913.371 90.4239C905.531 92.6336 885.145 93.1861 869.464 90.4239C853.783 87.6618 851.43 82.4138 836.533 82.4138C821.636 82.4138 802.035 65.2887 797.33 63.079C792.626 60.8693 787.921 63.079 776.161 65.2887C764.4 67.4983 747.818 66.9186 731.469 63.079C717.356 59.7645 705.595 28 696.186 28C688.957 28 685.209 38.2199 674.232 51.2019C663.256 64.1838 635.813 60.3169 625.621 59.7645C615.428 59.212 603.667 51.2019 594.258 51.2019C584.849 51.2019 584.849 60.5931 573.872 69.1557C562.896 77.7182 552.703 78.5469 527.613 76.061C502.523 73.5751 500.171 74.4037 490.762 76.061C481.353 77.7182 459.399 89.0429 444.502 89.0429C429.605 89.0429 411.572 84.0711 402.947 82.4138C394.322 80.7565 388.05 85.7283 374.721 89.0429C361.392 92.3575 355.903 92.3575 343.359 92.3575H343.358C330.813 92.3575 308.075 88.7667 300.235 89.0429C292.394 89.3191 270.44 94.5672 257.111 101.196C246.448 106.5 265.736 108.562 276.713 108.93Z" fill="#86D1FF"/>
</g>
<g id="wave2">
<path d="M1322.22 117.42C1318.3 120.998 514.83 122.007 118.705 119.576C118.708 118.081 130.032 103.736 137.079 101.545C145.888 98.8067 166.427 98.8553 186.966 98.9038L186.968 98.9038C207.508 98.9524 242.735 91.7927 258.394 87.3459C274.053 82.8991 281.904 70.8461 309.268 81.6028C336.631 92.3595 388.462 96.2759 420.74 96.3522C453.017 96.4285 470.622 96.4701 491.156 99.6228C511.689 102.776 515.624 92.4377 539.098 92.4932C562.572 92.5486 575.279 96.7175 592.884 96.7591C610.49 96.8007 635.929 92.722 660.391 88.2961C684.853 83.8701 694.625 88.377 714.187 88.4232C733.748 88.4695 766.061 71.9905 774.879 65.1132C783.697 58.236 787.596 64.4535 806.163 72.0852C821.798 79.0203 844.29 80.798 869.728 77.409C895.166 74.0201 907.898 66.4623 915.71 72.3442C923.522 78.226 969.462 92.4757 1006.63 93.5982C1043.79 94.7208 1066.28 97.878 1099.53 103.82C1132.77 109.762 1160.17 101.894 1189.51 104.033C1218.85 106.171 1259.95 97.301 1291.24 98.4097C1322.54 99.5184 1327.12 112.948 1322.22 117.42Z" fill="#74BDE0"/>
</g>
<path d="M129.733 111H1324V122H114L129.733 111Z" fill="#74BDE0"/>
<rect y="88" width="1458" height="34" fill="none"/>
</svg>


