<svg width="55" height="54" viewBox="0 0 55 54" fill="none" xmlns="http://www.w3.org/2000/svg">
    <g clip-path="url(#clip0_1_91)">
    <path fill-rule="evenodd" clip-rule="evenodd" d="M27.4181 0C12.2566 0 0 12.375 0 27.6846C0 39.9223 7.85321 50.2813 18.7477 53.9477C20.1098 54.2233 20.6087 53.352 20.6087 52.6191C20.6087 51.9772 20.5638 49.7773 20.5638 47.4851C12.9368 49.1355 11.3485 44.1849 11.3485 44.1849C10.1228 40.9764 8.30668 40.1518 8.30668 40.1518C5.81036 38.4559 8.48852 38.4559 8.48852 38.4559C11.2576 38.6392 12.7106 41.2976 12.7106 41.2976C15.1615 45.5141 19.1108 44.3227 20.6996 43.5892C20.9264 41.8016 21.6532 40.5641 22.4248 39.8767C16.3417 39.2349 9.94153 36.8516 9.94153 26.2176C9.94153 23.1924 11.0303 20.7174 12.7555 18.7926C12.4833 18.1052 11.5298 15.2629 13.0283 11.4587C13.0283 11.4587 15.3433 10.7252 20.5633 14.3004C22.7981 13.6944 25.1029 13.3862 27.4181 13.3836C29.7331 13.3836 32.0931 13.7048 34.2723 14.3004C39.4928 10.7252 41.8079 11.4587 41.8079 11.4587C43.3063 15.2629 42.3522 18.1052 42.08 18.7926C43.8507 20.7174 44.8946 23.1924 44.8946 26.2176C44.8946 36.8516 38.4944 39.1888 32.3658 39.8767C33.3648 40.7475 34.2268 42.3973 34.2268 45.0101C34.2268 48.7226 34.1819 51.7022 34.1819 52.6185C34.1819 53.352 34.6814 54.2233 36.043 53.9482C46.9374 50.2807 54.7907 39.9223 54.7907 27.6846C54.8356 12.375 42.5341 0 27.4181 0Z" fill="#24292F"/>
    </g>
    <defs>
    <clipPath id="clip0_1_91">
    <rect width="55" height="54" fill="white"/>
    </clipPath>
    </defs>
    </svg>
    