<svg width="139" height="42" viewBox="0 0 139 42" fill="none" xmlns="http://www.w3.org/2000/svg">
<path d="M69.9658 40.2812C70.2952 40.1465 70.6322 40.0641 70.9766 40.0342C73.2676 39.8844 74.5778 39.6149 74.9072 39.2256C75.2367 38.8213 75.4014 36.8971 75.4014 33.4531L75.3789 31.0947V28.624L75.2891 25.9062L75.334 24.3115L75.3115 22.5596V20.4932L75.2666 19.5723L75.3115 18.4043C75.3265 18.1348 75.334 17.8203 75.334 17.4609C75.334 16.5176 75.2891 15.5218 75.1992 14.4736C75.1393 14.264 75.057 14.0618 74.9521 13.8672C74.3981 13.5827 73.4997 13.3955 72.2568 13.3057C71.029 13.2008 70.3327 13.0885 70.168 12.9688C70.0482 12.8789 69.9808 12.6468 69.9658 12.2725H71.8525L77.8047 12.4072C79.332 12.4072 81.3685 12.3623 83.9141 12.2725C83.9141 12.512 83.8991 12.7367 83.8691 12.9463C83.5697 13.0212 83.068 13.1035 82.3643 13.1934C80.9417 13.3581 80.0732 13.5153 79.7588 13.665C79.5641 13.7399 79.4219 13.8672 79.332 14.0469C79.1823 14.3164 79.0924 14.818 79.0625 15.5518L78.9502 18.4492L79.04 28.4443V32.3975C79.0101 33.6403 78.9951 34.4863 78.9951 34.9355C78.9951 36.6126 79.0326 37.6833 79.1074 38.1475C79.1973 38.6117 79.3395 38.9486 79.5342 39.1582C79.7438 39.3529 80.0807 39.5101 80.5449 39.6299C81.2337 39.7946 81.7728 39.8844 82.1621 39.8994C83.0007 39.9294 83.5322 40.0492 83.7568 40.2588C83.8018 40.4535 83.8242 40.6182 83.8242 40.7529V40.9326C82.4616 40.9775 81.4583 41 80.8145 41C80.4401 41 79.7738 40.9775 78.8154 40.9326L75.7158 40.9775L70.4375 40.9551H70.0107L69.9658 40.2812Z" fill="white"/>
<path d="M86.2635 35.2949C86.8175 36.7174 87.2368 37.6383 87.5213 38.0576C88.0903 38.9111 88.7716 39.5775 89.5652 40.0566C90.3589 40.5208 91.2199 40.7529 92.1482 40.7529C93.0018 40.7529 93.8478 40.3861 94.6863 39.6523C95.2853 39.0983 95.5848 38.4544 95.5848 37.7207C95.5848 36.7474 95.2329 35.849 94.5291 35.0254C93.8253 34.2168 92.4852 33.4456 90.5086 32.7119C88.547 31.9632 87.2293 31.1696 86.5555 30.3311C85.8816 29.4925 85.5447 28.5342 85.5447 27.4561C85.5447 26.4378 85.8217 25.5394 86.3758 24.7607C86.9298 23.9821 87.6935 23.3981 88.6668 23.0088C89.6401 22.6045 90.5385 22.4023 91.3621 22.4023C92.4253 22.4023 93.3761 22.4847 94.2146 22.6494C95.0682 22.8141 95.8019 23.0687 96.4158 23.4131C96.5356 24.1768 96.6329 25.2998 96.7078 26.7822L96.7527 27.501C96.5581 27.516 96.3934 27.5234 96.2586 27.5234H95.9441C95.4949 26.2806 94.8061 25.2998 93.8777 24.5811C92.9643 23.8473 92.0584 23.4805 91.16 23.4805C90.2615 23.4805 89.5353 23.7575 88.9813 24.3115C88.4272 24.8506 88.1502 25.5618 88.1502 26.4453C88.1502 27.1191 88.3748 27.7181 88.824 28.2422C89.2732 28.7663 90.3214 29.3652 91.9686 30.0391C93.6307 30.7129 94.8361 31.3418 95.5848 31.9258C96.3484 32.4948 96.91 33.1911 97.2693 34.0146C97.6287 34.8382 97.8084 35.6243 97.8084 36.373C97.8084 37.4062 97.464 38.3721 96.7752 39.2705C96.1014 40.1689 95.2479 40.7979 94.2146 41.1572C93.1964 41.5316 92.283 41.7188 91.4744 41.7188C89.5727 41.7188 87.8208 41.3669 86.2186 40.6631C86.0688 40.5433 85.9865 40.3187 85.9715 39.9893C85.9715 39.8545 85.9565 39.6374 85.9266 39.3379C85.687 37.3164 85.5672 36.1185 85.5672 35.7441C85.5672 35.5645 85.6046 35.4447 85.6795 35.3848C85.7544 35.3249 85.949 35.2949 86.2635 35.2949Z" fill="white"/>
<path d="M103.931 18.8086L104.628 18.8311L104.717 20.9648L104.672 23.7275C104.957 23.7425 105.137 23.75 105.212 23.75C105.601 23.75 106.342 23.7201 107.435 23.6602C108.139 23.6152 108.813 23.5928 109.457 23.5928C109.756 23.5928 110.205 23.6003 110.804 23.6152C110.834 23.9147 110.849 24.1543 110.849 24.334C110.849 24.5286 110.804 24.8356 110.714 25.2549H110.333L106.851 25.3672L105.122 25.4121L104.717 25.457C104.598 25.8314 104.538 26.2656 104.538 26.7598L104.605 30.1289L104.56 36.0586C104.56 37.6159 104.762 38.6491 105.167 39.1582C105.556 39.6823 106.14 39.9443 106.919 39.9443C107.308 39.9443 108.042 39.8245 109.12 39.585C109.449 39.5101 109.891 39.263 110.445 38.8438H110.647C110.782 38.8438 110.887 38.8887 110.962 38.9785C111.051 39.0534 111.096 39.1582 111.096 39.293L111.074 39.4502C110.43 40.154 109.689 40.6706 108.85 41C108.027 41.3145 106.926 41.4717 105.548 41.4717C104.575 41.4717 103.767 41.2471 103.123 40.7979C102.494 40.3486 102.089 39.8171 101.91 39.2031C101.73 38.5892 101.64 37.249 101.64 35.1826L101.73 30.1289L101.708 27.7031V26.8047C101.708 26.3854 101.693 25.9661 101.663 25.5469L101.281 25.5244L99.4391 25.5918L99.2594 25.6143C99.0947 25.6143 98.9674 25.5768 98.8775 25.502C98.8027 25.4271 98.7652 25.3372 98.7652 25.2324C98.7652 25.0527 98.8176 24.9105 98.9225 24.8057C99.0423 24.6859 99.3867 24.5062 99.9557 24.2666C100.345 24.1019 100.794 23.7949 101.303 23.3457C101.827 22.8815 102.269 22.3724 102.629 21.8184C102.808 21.5189 103.063 20.9499 103.392 20.1113C103.632 19.4974 103.811 19.0632 103.931 18.8086Z" fill="white"/>
<path d="M126.9 37.9453C126.99 38.14 127.035 38.2822 127.035 38.3721C127.035 38.5967 126.855 38.9935 126.496 39.5625C126.031 40.3112 125.515 40.8577 124.946 41.2021C124.586 41.4268 124.092 41.5391 123.463 41.5391C122.385 41.5391 121.577 41.2096 121.037 40.5508C120.708 40.1615 120.476 39.4652 120.341 38.4619L117.826 40.2139C116.942 40.723 116.268 41.0449 115.804 41.1797C115.055 41.3743 114.157 41.4717 113.109 41.4717C112.345 41.4717 111.739 41.2471 111.289 40.7979C110.855 40.3337 110.638 39.7422 110.638 39.0234C110.638 37.9902 111.267 36.7549 112.525 35.3174C113.798 33.8799 115.52 32.7044 117.691 31.791C119.218 31.1471 120.154 30.7354 120.498 30.5557C120.528 30.0615 120.543 29.5225 120.543 28.9385C120.543 27.0368 120.274 25.749 119.735 25.0752C119.211 24.4014 118.454 24.0645 117.466 24.0645C116.433 24.0645 115.467 24.4688 114.569 25.2773C114.015 25.7865 113.595 26.7448 113.311 28.1523C113.221 28.5417 113.049 28.9609 112.794 29.4102C112.15 29.8294 111.634 30.0391 111.245 30.0391C110.915 30.0391 110.616 29.9417 110.346 29.7471C110.196 29.6423 110.121 29.5225 110.121 29.3877C110.121 28.9984 110.533 28.1224 111.357 26.7598C112.195 25.3822 113.244 24.3564 114.501 23.6826C115.774 22.9938 116.882 22.6494 117.826 22.6494C119.113 22.6494 120.072 22.7692 120.701 23.0088C121.329 23.2334 121.884 23.6377 122.363 24.2217C122.842 24.8057 123.134 25.4421 123.239 26.1309C123.299 26.4603 123.329 27.6357 123.329 29.6572L123.261 33.2285L123.284 35.834C123.284 36.1784 123.276 36.4704 123.261 36.71C123.246 37.1442 123.239 37.4661 123.239 37.6758C123.239 38.1699 123.381 38.5667 123.665 38.8662C123.95 39.1657 124.287 39.3154 124.676 39.3154C125.245 39.3154 125.732 39.0309 126.136 38.4619L126.406 38.1025C126.481 38.0576 126.645 38.0052 126.9 37.9453ZM120.296 37.2939C120.401 35.3923 120.454 34.0521 120.454 33.2734C120.454 32.8691 120.431 32.3226 120.386 31.6338C119.383 31.9932 118.32 32.5397 117.197 33.2734C116.074 34.0072 115.183 34.8532 114.524 35.8115C114.045 36.5003 113.805 37.1517 113.805 37.7656C113.805 38.3496 114 38.8363 114.389 39.2256C114.793 39.6149 115.295 39.8096 115.894 39.8096C116.358 39.8096 116.92 39.6449 117.579 39.3154C118.447 38.8812 119.353 38.2074 120.296 37.2939Z" fill="white"/>
<path d="M131.45 18.8086L132.147 18.8311L132.237 20.9648L132.192 23.7275C132.476 23.7425 132.656 23.75 132.731 23.75C133.12 23.75 133.861 23.7201 134.954 23.6602C135.658 23.6152 136.332 23.5928 136.976 23.5928C137.275 23.5928 137.724 23.6003 138.323 23.6152C138.353 23.9147 138.368 24.1543 138.368 24.334C138.368 24.5286 138.323 24.8356 138.234 25.2549H137.852L134.37 25.3672L132.641 25.4121L132.237 25.457C132.117 25.8314 132.057 26.2656 132.057 26.7598L132.124 30.1289L132.079 36.0586C132.079 37.6159 132.281 38.6491 132.686 39.1582C133.075 39.6823 133.659 39.9443 134.438 39.9443C134.827 39.9443 135.561 39.8245 136.639 39.585C136.968 39.5101 137.41 39.263 137.964 38.8438H138.166C138.301 38.8438 138.406 38.8887 138.481 38.9785C138.571 39.0534 138.615 39.1582 138.615 39.293L138.593 39.4502C137.949 40.154 137.208 40.6706 136.369 41C135.546 41.3145 134.445 41.4717 133.068 41.4717C132.094 41.4717 131.286 41.2471 130.642 40.7979C130.013 40.3486 129.609 39.8171 129.429 39.2031C129.249 38.5892 129.159 37.249 129.159 35.1826L129.249 30.1289L129.227 27.7031V26.8047C129.227 26.3854 129.212 25.9661 129.182 25.5469L128.8 25.5244L126.958 25.5918L126.779 25.6143C126.614 25.6143 126.487 25.5768 126.397 25.502C126.322 25.4271 126.284 25.3372 126.284 25.2324C126.284 25.0527 126.337 24.9105 126.442 24.8057C126.561 24.6859 126.906 24.5062 127.475 24.2666C127.864 24.1019 128.313 23.7949 128.822 23.3457C129.347 22.8815 129.788 22.3724 130.148 21.8184C130.327 21.5189 130.582 20.9499 130.911 20.1113C131.151 19.4974 131.331 19.0632 131.45 18.8086Z" fill="white"/>
<path d="M23.2195 42H0V6.77419L21.8537 0H25.2683L28 2.03226V39.2903L23.2195 42Z" fill="white"/>
<path d="M39.7805 42H63V6.77419L41.1463 0H37.7317L35 2.03226V39.2903L39.7805 42Z" fill="white"/>
</svg>
