<svg width="38" height="44" viewBox="0 0 38 44" fill="none" xmlns="http://www.w3.org/2000/svg">
    <path d="M11.5427 0.634155L18.416 0.625048L18.4982 43.327L11.6249 43.3362L11.5427 0.634155Z" fill="#280E71"/>
    <path d="M21.2826 18.7715L28.156 18.7624L28.2031 43.2704L21.3298 43.2795L21.2826 18.7715Z" fill="#280E71"/>
    <path d="M31.0182 31.6951L37.8915 31.686L37.9138 43.2687L31.0405 43.2778L31.0182 31.6951Z" fill="#280E71"/>
    <path d="M2.05041 25.7061C0.407056 22.7722 -0.0465044 19.4756 0.757656 16.31C1.56181 13.1443 3.58042 10.28 6.51115 8.14594C9.44189 6.01191 13.127 4.72301 17.0147 4.47228C20.9024 4.22155 24.7833 5.02248 28.0763 6.75513C31.3693 8.48777 33.8972 11.0589 35.2813 14.0834C36.6655 17.1079 36.8314 20.4231 35.7542 23.5324C34.6771 26.6417 32.4148 29.3778 29.3063 31.331C26.1977 33.2842 22.4102 34.3493 18.5109 34.3668L18.4615 26.8105C20.3925 26.8018 22.2682 26.2743 23.8076 25.3071C25.347 24.3398 26.4674 22.9848 27.0008 21.445C27.5342 19.9052 27.452 18.2635 26.7666 16.7657C26.0811 15.2679 24.8293 13.9946 23.1985 13.1366C21.5677 12.2785 19.6458 11.8819 17.7206 12.006C15.7953 12.1302 13.9703 12.7685 12.519 13.8253C11.0676 14.8821 10.068 16.3006 9.66973 17.8683C9.27149 19.436 9.4961 21.0686 10.3099 22.5215L2.05041 25.7061Z" fill="#0950BA"/>
    </svg>