<svg width="181" height="52" viewBox="0 0 181 52" fill="none" xmlns="http://www.w3.org/2000/svg">
<path d="M53.6991 50.5666H48V26.702H53.4142L53.6991 29.1487V29.3615H53.7704C54.1741 28.3922 54.744 27.683 55.4801 27.2339C56.24 26.7611 57.3324 26.5247 58.7571 26.5247C61.0605 26.5247 62.7465 27.1984 63.8151 28.5459C64.9075 29.8697 65.4655 31.8791 65.4893 34.5741C65.5367 36.9618 65.2874 38.8766 64.7412 40.3186C64.2188 41.737 63.3996 42.7536 62.2835 43.3682C61.1674 43.9828 59.7426 44.2902 58.0091 44.2902C57.1068 44.2902 56.2875 44.2074 55.5514 44.042C54.839 43.8765 54.2453 43.6755 53.7704 43.4391L53.6991 43.4746V50.5666ZM56.9049 31.3472C55.9551 31.3472 55.1833 31.6427 54.5896 32.2337C53.996 32.8011 53.6991 33.7822 53.6991 35.1769V38.9002C54.5778 39.2548 55.6107 39.4321 56.7981 39.4321C57.9141 39.4321 58.7096 39.1721 59.1846 38.652C59.6832 38.1083 59.9326 37.0327 59.9326 35.4251C59.9326 34.0304 59.7426 33.002 59.3627 32.3401C58.9827 31.6782 58.1635 31.3472 56.9049 31.3472Z" fill="white"/>
<path d="M74.2222 43.971H68.523V26.702H73.1536L73.6167 30.248H73.7235C73.9372 28.9241 74.4478 27.9785 75.2552 27.4112C76.0625 26.8202 77.2617 26.5247 78.8527 26.5247C79.4939 26.5247 80.0757 26.5601 80.5981 26.631C81.1205 26.6783 81.5598 26.7256 81.916 26.7729V32.3047L81.8448 32.3756C81.4649 32.281 81.0255 32.1983 80.5269 32.1274C80.0519 32.0564 79.5058 32.021 78.8884 32.021C78.0097 32.021 77.2142 32.1628 76.5018 32.4465C75.8132 32.7302 75.267 33.2857 74.8633 34.1131C74.4834 34.9169 74.2934 36.1225 74.2934 37.7301L74.2222 43.971Z" fill="white"/>
<path d="M99.7005 43.4037C99.0356 43.6401 98.1095 43.8528 96.9222 44.042C95.7586 44.2074 94.3695 44.2902 92.7547 44.2902C90.7125 44.2902 88.9672 44.0301 87.5186 43.51C86.0938 42.9663 85.0134 42.0562 84.2772 40.7796C83.5411 39.4794 83.173 37.6828 83.173 35.3897C83.173 32.2692 83.8854 30.0116 85.3102 28.6168C86.7587 27.222 88.9909 26.5247 92.0067 26.5247C94.1676 26.5247 95.8655 26.832 97.1003 27.4466C98.3589 28.0613 99.2494 28.9359 99.7718 30.0707C100.318 31.1818 100.591 32.5056 100.591 34.0422C100.591 34.4914 100.567 34.976 100.52 35.4961C100.496 36.0161 100.437 36.5244 100.342 37.0208L100.199 37.1627H88.4804C88.6466 38.2029 89.1334 38.8884 89.9408 39.2194C90.7719 39.5503 92.1136 39.7158 93.9658 39.7158C95.2006 39.7158 96.2217 39.6922 97.0291 39.6449C97.8602 39.574 98.7032 39.4794 99.5581 39.3612L99.7005 39.4676V43.4037ZM95.6399 33.4394C95.6399 32.872 95.5449 32.3874 95.3549 31.9855C95.1887 31.56 94.8444 31.2409 94.322 31.0281C93.7995 30.7917 93.0278 30.6735 92.0067 30.6735C90.5107 30.6735 89.5252 30.9335 89.0503 31.4536C88.5991 31.9501 88.3735 32.612 88.3735 33.4394H95.6399Z" fill="white"/>
<path d="M114.449 43.971L114.236 41.4534H114.093C113.689 42.399 113.108 43.1082 112.348 43.581C111.612 44.0538 110.531 44.2902 109.106 44.2902C106.803 44.2902 105.117 43.6282 104.048 42.3044C102.98 40.9569 102.422 38.9357 102.374 36.2407C102.35 33.8294 102.6 31.9146 103.122 30.4962C103.645 29.0778 104.464 28.0613 105.58 27.4466C106.696 26.832 108.121 26.5247 109.854 26.5247C110.757 26.5247 111.576 26.6074 112.312 26.7729C113.048 26.9147 113.642 27.1157 114.093 27.3757L114.164 27.3402V20.1064H119.864V43.971H114.449ZM110.959 39.4676C111.908 39.4676 112.68 39.1721 113.274 38.5811C113.868 37.9901 114.164 37.009 114.164 35.6379V31.9146C113.286 31.56 112.253 31.3827 111.065 31.3827C109.949 31.3827 109.142 31.6546 108.643 32.1983C108.168 32.7184 107.931 33.7822 107.931 35.3897C107.931 36.7608 108.121 37.7892 108.501 38.4747C108.905 39.1366 109.724 39.4676 110.959 39.4676Z" fill="white"/>
<path d="M129.523 20.2837C129.594 21.1347 129.629 21.8439 129.629 22.4113C129.629 22.7422 129.618 23.085 129.594 23.4396C129.594 23.7706 129.57 24.1488 129.523 24.5744C129.024 24.6689 128.537 24.7398 128.062 24.7871C127.587 24.8344 127.112 24.858 126.637 24.858C126.186 24.858 125.723 24.8344 125.248 24.7871C124.797 24.7398 124.334 24.6689 123.859 24.5744C123.812 24.1725 123.776 23.8061 123.752 23.4751C123.728 23.1205 123.717 22.7777 123.717 22.4467C123.717 22.1394 123.728 21.8085 123.752 21.4539C123.776 21.0993 123.812 20.7092 123.859 20.2837C124.334 20.1655 124.809 20.0946 125.284 20.0709C125.782 20.0236 126.269 20 126.744 20C127.195 20 127.647 20.0236 128.098 20.0709C128.573 20.0946 129.048 20.1655 129.523 20.2837ZM129.523 43.971H123.823V26.702H129.523V43.971Z" fill="white"/>
<path d="M146.966 38.9712V43.581C146.373 43.8174 145.494 43.9947 144.33 44.1129C143.167 44.2311 141.932 44.2902 140.626 44.2902C138.75 44.2902 137.183 44.0301 135.924 43.51C134.689 42.99 133.763 42.0916 133.146 40.8151C132.552 39.5385 132.243 37.7655 132.22 35.4961C132.22 33.1557 132.54 31.3354 133.181 30.0352C133.846 28.735 134.808 27.8249 136.067 27.3048C137.325 26.7847 138.833 26.5247 140.59 26.5247C141.635 26.5247 142.739 26.5956 143.903 26.7374C145.066 26.8793 146.016 27.0684 146.752 27.3048L146.788 32.0564L146.681 32.1274C145.969 31.9855 145.209 31.8791 144.402 31.8082C143.594 31.7373 142.799 31.7018 142.015 31.7018C140.424 31.7018 139.32 31.9973 138.702 32.5883C138.085 33.1793 137.776 34.1722 137.776 35.567C137.776 36.6308 137.907 37.4227 138.168 37.9428C138.429 38.4629 138.869 38.8057 139.486 38.9712C140.103 39.1366 140.946 39.2194 142.015 39.2194C142.846 39.2194 143.642 39.1839 144.402 39.113C145.161 39.0421 145.969 38.9593 146.824 38.8648L146.966 38.9712Z" fill="white"/>
<path d="M150.519 38.7939V31.3472H148.382V26.7374H151.054L152.122 22.5177H156.218V26.7374H160.101V31.3472H156.218V37.5528C156.218 38.2147 156.301 38.6757 156.468 38.9357C156.634 39.1721 157.014 39.2903 157.608 39.2903C157.987 39.2903 158.391 39.2785 158.819 39.2548C159.246 39.2076 159.673 39.1603 160.101 39.113L160.208 39.1839V43.7937C159.068 44.1247 157.56 44.2902 155.684 44.2902C153.808 44.2902 152.478 43.8646 151.695 43.0136C150.911 42.1626 150.519 40.756 150.519 38.7939Z" fill="white"/>
<path d="M162.169 35.4606C162.169 32.2928 162.846 30.0116 164.2 28.6168C165.553 27.222 167.845 26.5247 171.074 26.5247C173.235 26.5247 174.969 26.832 176.275 27.4466C177.581 28.0613 178.519 29.0305 179.089 30.3544C179.682 31.6546 179.979 33.3566 179.979 35.4606C179.979 37.5409 179.682 39.2312 179.089 40.5314C178.519 41.8316 177.581 42.789 176.275 43.4037C174.969 43.9947 173.235 44.2902 171.074 44.2902C167.845 44.2902 165.553 43.6046 164.2 42.2335C162.846 40.8387 162.169 38.5811 162.169 35.4606ZM171.074 39.4321C172.452 39.4321 173.378 39.1366 173.853 38.5456C174.351 37.931 174.601 36.8672 174.601 35.3542C174.601 33.9122 174.351 32.8838 173.853 32.2692C173.378 31.6309 172.452 31.3118 171.074 31.3118C169.744 31.3118 168.818 31.6309 168.296 32.2692C167.797 32.8838 167.548 33.9122 167.548 35.3542C167.548 36.8672 167.797 37.931 168.296 38.5456C168.818 39.1366 169.744 39.4321 171.074 39.4321Z" fill="white"/>
<path d="M16.5427 1.63416L23.416 1.62505L23.4982 44.327L16.6249 44.3362L16.5427 1.63416Z" fill="white"/>
<path d="M26.2826 19.7715L33.156 19.7624L33.2031 44.2704L26.3298 44.2795L26.2826 19.7715Z" fill="white"/>
<path d="M36.0182 32.6951L42.8915 32.686L42.9138 44.2687L36.0405 44.2778L36.0182 32.6951Z" fill="white"/>
<path d="M7.05041 26.7061C5.40706 23.7722 4.95349 20.4756 5.75765 17.31C6.56181 14.1443 8.58042 11.28 11.5112 9.14594C14.4419 7.01191 18.127 5.72301 22.0147 5.47228C25.9024 5.22155 29.7833 6.02248 33.0763 7.75513C36.3693 9.48777 38.8972 12.0589 40.2813 15.0834C41.6655 18.1079 41.8314 21.4231 40.7542 24.5324C39.6771 27.6417 37.4148 30.3778 34.3063 32.331C31.1977 34.2842 27.4102 35.3493 23.5109 35.3668L23.4615 27.8105C25.3925 27.8018 27.2682 27.2743 28.8076 26.3071C30.347 25.3398 31.4674 23.9848 32.0008 22.445C32.5342 20.9052 32.452 19.2635 31.7666 17.7657C31.0811 16.2679 29.8293 14.9946 28.1985 14.1366C26.5677 13.2785 24.6458 12.8819 22.7206 13.006C20.7953 13.1302 18.9703 13.7685 17.519 14.8253C16.0676 15.8821 15.068 17.3006 14.6697 18.8683C14.2715 20.436 14.4961 22.0686 15.3099 23.5215L7.05041 26.7061Z" fill="#F2F8FD"/>
</svg>
