<svg width="181" height="107" viewBox="0 0 181 107" fill="none" xmlns="http://www.w3.org/2000/svg">
    <g clip-path="url(#clip0_1_36)">
    <path d="M90.9599 67.3586V77.3128H88.9522V67.3586H86.1495V65.4978H93.7626V67.3561L90.9599 67.3586Z" fill="black"/>
    <path d="M101.406 65.4978V67.3561H96.5143V70.4685H101.406V72.3522H96.5143V75.4646H101.406V77.3204H94.5015V65.4978H101.406Z" fill="black"/>
    <path d="M112.176 74.1293L113.674 75.3986C112.108 76.7526 110.505 77.4295 108.864 77.4295C108.034 77.4453 107.209 77.2963 106.437 76.9912C105.666 76.6861 104.963 76.231 104.369 75.6525C103.784 75.1063 103.318 74.4464 102.999 73.7134C102.68 72.9805 102.516 72.1901 102.516 71.3913C102.516 70.5925 102.68 69.8021 102.999 69.0692C103.318 68.3362 103.784 67.6763 104.369 67.1301C104.962 66.5509 105.665 66.0953 106.437 65.7902C107.209 65.485 108.034 65.3364 108.864 65.3531C110.501 65.3531 112.105 66.036 113.674 67.4018L112.176 68.6711C111.05 67.7098 109.946 67.2291 108.864 67.2291C108.301 67.2204 107.742 67.3232 107.219 67.5315C106.697 67.7398 106.221 68.0495 105.819 68.4426C105.418 68.8221 105.098 69.279 104.88 69.7855C104.662 70.292 104.549 70.8375 104.549 71.3888C104.549 71.94 104.662 72.4855 104.88 72.992C105.098 73.4985 105.418 73.9554 105.819 74.3349C106.221 74.7272 106.697 75.0362 107.22 75.2441C107.743 75.4519 108.301 75.5545 108.864 75.5458C109.944 75.5594 111.048 75.0872 112.176 74.1293Z" fill="black"/>
    <path d="M122.353 77.5311L116.668 69.9151V77.3229H114.655V65.4978H115.855L121.397 72.9412V65.4978H123.423V77.5311H122.353Z" fill="black"/>
    <path d="M135.247 67.1251C135.833 67.6725 136.3 68.3338 136.619 69.068C136.938 69.8022 137.102 70.5938 137.102 71.3938C137.102 72.1939 136.938 72.9855 136.619 73.7197C136.3 74.4539 135.833 75.1151 135.247 75.6626C134.031 76.804 132.423 77.4396 130.752 77.4396C129.081 77.4396 127.473 76.804 126.256 75.6626C125.668 75.1163 125.2 74.4554 124.88 73.7211C124.559 72.9867 124.394 72.1945 124.394 71.3938C124.394 70.5931 124.559 69.801 124.88 69.0666C125.2 68.3322 125.668 67.6714 126.256 67.1251C127.473 65.9854 129.081 65.3509 130.752 65.3509C132.422 65.3509 134.03 65.9854 135.247 67.1251ZM130.75 67.2215C130.185 67.2125 129.623 67.3159 129.098 67.5255C128.573 67.7352 128.096 68.047 127.693 68.4426C127.29 68.8223 126.968 69.28 126.749 69.7876C126.529 70.2953 126.416 70.8423 126.416 71.3951C126.416 71.9479 126.529 72.4949 126.749 73.0026C126.968 73.5103 127.29 73.9679 127.693 74.3476C128.515 75.1296 129.608 75.5659 130.744 75.5659C131.88 75.5659 132.973 75.1296 133.795 74.3476C134.198 73.9679 134.52 73.5103 134.739 73.0026C134.959 72.4949 135.072 71.9479 135.072 71.3951C135.072 70.8423 134.959 70.2953 134.739 69.7876C134.52 69.28 134.198 68.8223 133.795 68.4426C133.394 68.0484 132.918 67.7374 132.396 67.5278C131.873 67.3182 131.314 67.2141 130.75 67.2215Z" fill="black"/>
    <path d="M138.096 77.3128V65.4978H140.134V75.4544H144.346V77.3102L138.096 77.3128Z" fill="black"/>
    <path d="M155.661 67.1251C156.249 67.6714 156.717 68.3322 157.037 69.0666C157.358 69.801 157.523 70.5931 157.523 71.3938C157.523 72.1945 157.358 72.9867 157.037 73.7211C156.717 74.4554 156.249 75.1163 155.661 75.6626C154.445 76.8038 152.837 77.4393 151.167 77.4393C149.496 77.4393 147.888 76.8038 146.672 75.6626C146.085 75.1163 145.616 74.4554 145.296 73.7211C144.976 72.9867 144.81 72.1945 144.81 71.3938C144.81 70.5931 144.976 69.801 145.296 69.0666C145.616 68.3322 146.085 67.6714 146.672 67.1251C147.889 65.985 149.496 65.3502 151.167 65.3502C152.837 65.3502 154.444 65.985 155.661 67.1251ZM151.164 67.2215C150.599 67.2124 150.037 67.3157 149.512 67.5253C148.987 67.735 148.509 68.0468 148.107 68.4426C147.703 68.8223 147.382 69.28 147.163 69.7876C146.943 70.2953 146.83 70.8423 146.83 71.3951C146.83 71.9479 146.943 72.4949 147.163 73.0026C147.382 73.5103 147.703 73.9679 148.107 74.3476C148.928 75.1294 150.02 75.5657 151.156 75.5657C152.293 75.5657 153.385 75.1294 154.206 74.3476C154.61 73.9679 154.931 73.5103 155.15 73.0026C155.37 72.4949 155.483 71.9479 155.483 71.3951C155.483 70.8423 155.37 70.2953 155.15 69.7876C154.931 69.28 154.61 68.8223 154.206 68.4426C153.806 68.0484 153.33 67.7375 152.808 67.5279C152.286 67.3183 151.727 67.2141 151.164 67.2215Z" fill="black"/>
    <path d="M168.979 75.6245C167.789 76.7804 166.193 77.428 164.53 77.4295C163.7 77.4453 162.875 77.2963 162.104 76.9912C161.332 76.6861 160.629 76.231 160.036 75.6525C159.451 75.1063 158.984 74.4464 158.666 73.7134C158.347 72.9805 158.182 72.1901 158.182 71.3913C158.182 70.5925 158.347 69.8021 158.666 69.0692C158.984 68.3362 159.451 67.6763 160.036 67.1301C160.629 66.5509 161.332 66.0953 162.103 65.7902C162.875 65.485 163.7 65.3364 164.53 65.3531C166.168 65.3531 167.771 66.036 169.341 67.4018L167.843 68.6711C166.716 67.7098 165.612 67.2291 164.53 67.2291C163.965 67.2184 163.404 67.3203 162.879 67.5286C162.354 67.737 161.876 68.0478 161.473 68.4426C161.072 68.8221 160.752 69.279 160.534 69.7855C160.315 70.292 160.203 70.8375 160.203 71.3888C160.203 71.94 160.315 72.4855 160.534 72.992C160.752 73.4985 161.072 73.9554 161.473 74.3349C161.876 74.729 162.354 75.039 162.879 75.2469C163.404 75.4548 163.966 75.5565 164.53 75.5458C165.55 75.5458 166.35 75.3123 166.961 74.8452V71.291H168.979V75.6245Z" fill="black"/>
    <path d="M172.556 65.4978V77.3102H170.538V65.4978H172.556Z" fill="black"/>
    <path d="M181 65.4978V67.3561H176.111V70.4685H181V72.3522H176.111V75.4646H181V77.3204H174.093V65.4978H181Z" fill="black"/>
    <path d="M2.73899 80.2373C4.76032 80.2475 6.33747 80.7958 7.47043 81.8824C8.05892 82.425 8.52686 83.0843 8.84413 83.818C9.1614 84.5517 9.32097 85.3434 9.31256 86.1423C9.32271 86.9421 9.16317 87.735 8.8444 88.4691C8.52563 89.2032 8.05481 89.8619 7.46279 90.4022C6.33492 91.4853 4.76032 92.0337 2.73899 92.0472H0V80.2373H2.73899ZM2.01793 82.1185V90.1737H2.73134C4.1225 90.1737 5.20365 89.814 5.97482 89.0947C6.38385 88.7197 6.70878 88.2629 6.92832 87.7541C7.14786 87.2453 7.25706 86.696 7.24876 86.1423C7.25546 85.5872 7.14559 85.0369 6.92619 84.5267C6.7068 84.0165 6.38274 83.5577 5.97482 83.1796C5.20535 82.4722 4.12419 82.1185 2.73134 82.1185H2.01793Z" fill="black"/>
    <path d="M18.3805 80.2373V82.0931H13.4886V85.2055H18.3805V87.0765H13.4886V90.1889H18.3805V92.0447H11.4655V80.2373H18.3805Z" fill="black"/>
    <path d="M20.9794 92.0472V80.2373H22.9973V90.1914H27.209V92.0472H20.9794Z" fill="black"/>
    <path d="M29.283 92.0472V80.2373H31.3009V90.1914H35.51V92.0472H29.283Z" fill="black"/>
    <path d="M35.6705 82.6236C35.4924 82.5659 35.3301 82.4677 35.1966 82.3368C35.0764 82.2294 34.9804 82.0979 34.915 81.9509C34.8495 81.8038 34.8161 81.6446 34.817 81.4838C34.8154 81.3204 34.8487 81.1585 34.9146 81.0088C34.9805 80.8591 35.0775 80.7251 35.1992 80.6155C35.4487 80.3766 35.7832 80.2461 36.1292 80.2525C36.4791 80.2452 36.8178 80.3757 37.0719 80.6155C37.19 80.7236 37.2835 80.8557 37.3459 81.0028C37.4083 81.15 37.4383 81.3088 37.4337 81.4685C37.4362 81.4964 37.4362 81.5244 37.4337 81.5523C37.415 81.9314 37.0753 83.1161 36.4145 85.1065H34.9087L35.6705 82.6236Z" fill="black"/>
    <path d="M42.8964 80.2373V92.0472H40.8784V80.2373H42.8964Z" fill="black"/>
    <path d="M53.251 92.2655L47.5667 84.6495V92.0574H45.5487V80.2373H46.7488L52.2905 87.6782V80.2373H54.316V92.2655H53.251Z" fill="black"/>
    <path d="M63.1292 80.2373V82.0931H58.9176V85.2055H63.1292V87.0765H58.9176V92.0447H56.8996V80.2373H63.1292Z" fill="black"/>
    <path d="M75.6114 81.8595C76.1969 82.407 76.6635 83.0683 76.9825 83.8025C77.3016 84.5367 77.4661 85.3282 77.4661 86.1283C77.4661 86.9284 77.3016 87.7199 76.9825 88.4541C76.6635 89.1883 76.1969 89.8496 75.6114 90.3971C74.3947 91.5385 72.7867 92.174 71.1156 92.174C69.4445 92.174 67.8365 91.5385 66.6198 90.3971C66.0323 89.8508 65.5638 89.1899 65.2435 88.4555C64.9233 87.7212 64.758 86.929 64.758 86.1283C64.758 85.3276 64.9233 84.5354 65.2435 83.8011C65.5638 83.0667 66.0323 82.4058 66.6198 81.8595C67.8373 80.7198 69.4451 80.0854 71.1156 80.0854C72.7861 80.0854 74.3938 80.7198 75.6114 81.8595ZM71.1143 81.9585C70.549 81.949 69.9874 82.0519 69.4625 82.2611C68.9375 82.4704 68.4597 82.7818 68.0568 83.1771C67.6536 83.5567 67.3323 84.0144 67.1127 84.5221C66.8932 85.0298 66.7799 85.5768 66.7799 86.1296C66.7799 86.6824 66.8932 87.2294 67.1127 87.737C67.3323 88.2447 67.6536 88.7024 68.0568 89.082C68.8788 89.864 69.9715 90.3004 71.1079 90.3004C72.2444 90.3004 73.3371 89.864 74.1591 89.082C74.5623 88.7024 74.8836 88.2447 75.1032 87.737C75.3227 87.2294 75.436 86.6824 75.436 86.1296C75.436 85.5768 75.3227 85.0298 75.1032 84.5221C74.8836 84.0144 74.5623 83.5567 74.1591 83.1771C73.7578 82.7832 73.2821 82.4726 72.7594 82.2634C72.2367 82.0542 71.6775 81.9506 71.1143 81.9585Z" fill="black"/>
    <path d="M82.4168 88.092L81.7467 88.3027H81.6422V92.0396H79.6243V80.2373H83.2627C84.2383 80.3471 85.1514 80.7704 85.8641 81.4432C86.2575 81.8125 86.5707 82.2583 86.7842 82.7531C86.9977 83.2478 87.107 83.781 87.1053 84.3195C87.1037 84.8581 86.991 85.3906 86.7745 85.884C86.5579 86.3774 86.242 86.8213 85.8463 87.1882C85.2755 87.7332 84.9171 88.0251 84.771 88.064L87.4565 92.0472H85.0615L82.4168 88.092ZM81.6524 82.0931V86.5129H82.8321C83.1273 86.5171 83.4203 86.4626 83.6941 86.3528C83.968 86.243 84.2171 86.0799 84.4271 85.8732C84.6435 85.6714 84.8149 85.4265 84.9304 85.1545C85.0458 84.8825 85.1026 84.5894 85.0972 84.2941C85.1015 84.002 85.0441 83.7122 84.9286 83.4437C84.8132 83.1751 84.6423 82.9338 84.4271 82.7354C84.2176 82.5278 83.9686 82.3641 83.6947 82.2538C83.4208 82.1435 83.1275 82.0888 82.8321 82.0931H81.6524Z" fill="black"/>
    <path d="M89.5025 92.0472V79.8819L95.0875 89.1455L100.675 79.8641V92.0497H98.6367V87.0765L95.6327 92.0447H94.527L91.5306 87.0917V92.0447L89.5025 92.0472Z" fill="black"/>
    <path d="M109.855 92.0472L108.92 89.5593H106.099L105.159 92.0472H103.017L107.521 80.2221L111.99 92.0421L109.855 92.0472ZM108.207 87.7112L107.501 85.8706L106.805 87.7112H108.207Z" fill="black"/>
    <path d="M120.243 82.0931H114.716V80.2373H123.662L117.662 90.1914H123.186V92.0472H114.243L120.243 82.0931Z" fill="black"/>
    <path d="M128.129 80.2373V92.0472H126.121V80.2373H128.129Z" fill="black"/>
    <path d="M141.23 81.8595C141.815 82.407 142.282 83.0683 142.601 83.8025C142.92 84.5367 143.085 85.3282 143.085 86.1283C143.085 86.9284 142.92 87.7199 142.601 88.4541C142.282 89.1883 141.815 89.8496 141.23 90.3971C140.013 91.5385 138.405 92.174 136.734 92.174C135.063 92.174 133.455 91.5385 132.238 90.3971C131.651 89.8508 131.182 89.1899 130.862 88.4555C130.542 87.7212 130.376 86.929 130.376 86.1283C130.376 85.3276 130.542 84.5354 130.862 83.8011C131.182 83.0667 131.651 82.4058 132.238 81.8595C133.456 80.7198 135.064 80.0854 136.734 80.0854C138.405 80.0854 140.012 80.7198 141.23 81.8595ZM136.73 81.9585C136.165 81.9489 135.603 82.0517 135.078 82.2609C134.553 82.4702 134.076 82.7816 133.673 83.1771C133.27 83.5567 132.948 84.0144 132.729 84.5221C132.509 85.0298 132.396 85.5768 132.396 86.1296C132.396 86.6824 132.509 87.2294 132.729 87.737C132.948 88.2447 133.27 88.7024 133.673 89.082C134.495 89.8678 135.591 90.3064 136.73 90.3064C137.87 90.3064 138.965 89.8678 139.788 89.082C140.191 88.7024 140.512 88.2447 140.732 87.737C140.951 87.2294 141.065 86.6824 141.065 86.1296C141.065 85.5768 140.951 85.0298 140.732 84.5221C140.512 84.0144 140.191 83.5567 139.788 83.1771C139.385 82.7818 138.907 82.4704 138.382 82.2611C137.857 82.0519 137.296 81.949 136.73 81.9585Z" fill="black"/>
    <path d="M152.917 92.2655L147.233 84.6495V92.0574H145.215V80.2373H146.412L151.957 87.6782V80.2373H153.995V92.2655H152.917Z" fill="black"/>
    <path d="M163.463 80.2373V82.0931H158.573V85.2055H163.463V87.0765H158.573V90.1889H163.463V92.0447H156.555V80.2373H163.463Z" fill="black"/>
    <path d="M181 80.2373V82.0931H176.111V85.2055H181V87.0765H176.111V90.1889H181V92.0447H174.093V80.2373H181Z" fill="black"/>
    <path d="M2.87658 94.9692C4.89791 94.9811 6.47506 95.5294 7.60802 96.6143C8.19645 97.1575 8.66433 97.8173 8.98158 98.5514C9.29883 99.2854 9.45844 100.078 9.45015 100.877C9.46014 101.676 9.30053 102.469 8.98177 103.203C8.663 103.938 8.19227 104.596 7.60038 105.137C6.47251 106.221 4.89791 106.77 2.87658 106.782H0.137589V94.9692H2.87658ZM2.15297 96.8529V104.908H2.86639C4.25924 104.908 5.34039 104.548 6.10986 103.829C6.51889 103.454 6.84382 102.997 7.06336 102.489C7.2829 101.98 7.3921 101.43 7.3838 100.877C7.39035 100.322 7.2804 99.7715 7.06101 99.2613C6.84163 98.7511 6.51765 98.2922 6.10986 97.9141C5.34039 97.2049 4.25924 96.8512 2.86639 96.8529H2.15297Z" fill="black"/>
    <path d="M17.7053 94.9692V96.8275H12.8134V99.9399H17.7053V101.813H12.8134V104.926H17.7053V106.782H10.798V94.9692H17.7053Z" fill="black"/>
    <path d="M19.494 106.782V94.9692H21.5119V104.926H25.7338V106.782H19.494Z" fill="black"/>
    <path d="M26.9848 106.782V94.9692H29.0002V104.926H33.2118V106.782H26.9848Z" fill="black"/>
    <path d="M41.2148 106.782L40.2797 104.291H37.4541L36.5114 106.782H34.3686L38.8707 94.9616L43.3397 106.782H41.2148ZM39.5663 102.446L38.8605 100.605L38.1649 102.446H39.5663Z" fill="black"/>
    <path d="M58.5812 103.601L60.0794 104.87C58.5099 106.224 56.9056 106.901 55.2664 106.901C54.4368 106.917 53.6123 106.767 52.8411 106.462C52.0699 106.157 51.3674 105.702 50.7745 105.124C50.1894 104.578 49.723 103.918 49.4041 103.185C49.0853 102.452 48.9208 101.662 48.9208 100.863C48.9208 100.064 49.0853 99.2736 49.4041 98.5406C49.723 97.8077 50.1894 97.1477 50.7745 96.6016C51.367 96.0226 52.0694 95.5673 52.8407 95.2621C53.612 94.957 54.4367 94.8082 55.2664 94.8245C56.9073 94.8245 58.5116 95.5083 60.0794 96.8758L58.5812 98.1451C57.4534 97.1821 56.3493 96.7006 55.269 96.7006C54.7061 96.6949 54.1477 96.8009 53.6263 97.0122C53.1049 97.2236 52.6309 97.5362 52.2319 97.9319C51.8294 98.3114 51.5088 98.7688 51.2897 99.276C51.0706 99.7832 50.9576 100.33 50.9576 100.882C50.9576 101.434 51.0706 101.98 51.2897 102.488C51.5088 102.995 51.8294 103.452 52.2319 103.832C52.6333 104.224 53.1089 104.533 53.6311 104.741C54.1534 104.949 54.7118 105.051 55.2741 105.043C56.3527 105.038 57.4551 104.557 58.5812 103.601Z" fill="black"/>
    <path d="M71.8354 96.594C72.4209 97.1415 72.8876 97.8027 73.2066 98.5369C73.5256 99.2711 73.6902 100.063 73.6902 100.863C73.6902 101.663 73.5256 102.454 73.2066 103.189C72.8876 103.923 72.4209 104.584 71.8354 105.132C70.6187 106.273 69.0107 106.909 67.3396 106.909C65.6686 106.909 64.0605 106.273 62.8439 105.132C62.2563 104.585 61.7879 103.924 61.4676 103.19C61.1473 102.456 60.982 101.663 60.982 100.863C60.982 100.062 61.1473 99.2699 61.4676 98.5355C61.7879 97.8012 62.2563 97.1403 62.8439 96.594C64.0614 95.4543 65.6691 94.8198 67.3396 94.8198C69.0102 94.8198 70.6179 95.4543 71.8354 96.594ZM67.3358 96.6904C66.7702 96.6807 66.2084 96.7837 65.6833 96.9934C65.1583 97.2031 64.6806 97.5153 64.2783 97.9115C63.875 98.2912 63.5538 98.7489 63.3342 99.2565C63.1146 99.7642 63.0014 100.311 63.0014 100.864C63.0014 101.417 63.1146 101.964 63.3342 102.471C63.5538 102.979 63.875 103.437 64.2783 103.816C65.1002 104.598 66.193 105.035 67.3294 105.035C68.4659 105.035 69.5586 104.598 70.3805 103.816C70.7838 103.437 71.1051 102.979 71.3246 102.471C71.5442 101.964 71.6575 101.417 71.6575 100.864C71.6575 100.311 71.5442 99.7642 71.3246 99.2565C71.1051 98.7489 70.7838 98.2912 70.3805 97.9115C69.9798 97.5168 69.5042 97.2056 68.9814 96.9959C68.4587 96.7863 67.8992 96.6824 67.3358 96.6904Z" fill="black"/>
    <path d="M74.8776 106.782V94.6164L80.4625 103.88L86.0501 94.5986V106.784H84.0118V101.813L81.0231 106.782H79.8944L76.898 101.829V106.782H74.8776Z" fill="black"/>
    <path d="M94.2492 94.9692H96.2672V103.22C96.151 104.153 95.7154 105.017 95.034 105.667C94.6304 106.06 94.1526 106.37 93.6283 106.578C93.1039 106.785 92.5433 106.888 91.9791 106.878C91.4147 106.892 90.8533 106.793 90.3282 106.587C89.803 106.38 89.3247 106.071 88.9216 105.677C88.5225 105.312 88.2049 104.868 87.9894 104.373C87.7738 103.878 87.6652 103.343 87.6706 102.804V94.9692H89.686V102.798C89.682 103.093 89.7406 103.384 89.8578 103.654C89.9751 103.924 90.1483 104.166 90.3662 104.365C90.7945 104.781 91.3692 105.014 91.9676 105.014C92.566 105.014 93.1406 104.781 93.5689 104.365C93.785 104.165 93.9565 103.923 94.0723 103.653C94.1882 103.383 94.2459 103.092 94.2416 102.798L94.2492 94.9692Z" fill="black"/>
    <path d="M105.738 107L100.056 99.384V106.792H98.0379V94.9692H99.2355L104.777 102.413V94.9692H106.815V107H105.738Z" fill="black"/>
    <path d="M110.663 94.9692V106.782H108.647V94.9692H110.663Z" fill="black"/>
    <path d="M121.866 103.601L123.364 104.87C121.795 106.224 120.19 106.901 118.551 106.901C117.721 106.916 116.896 106.767 116.125 106.462C115.353 106.157 114.65 105.702 114.057 105.124C113.473 104.577 113.009 103.916 112.691 103.183C112.374 102.451 112.21 101.661 112.21 100.863C112.21 100.065 112.374 99.2748 112.691 98.542C113.009 97.8092 113.473 97.1489 114.057 96.6016C114.65 96.0228 115.353 95.5675 116.124 95.2624C116.896 94.9573 117.721 94.8084 118.551 94.8245C120.192 94.8245 121.796 95.5083 123.364 96.8758L121.866 98.1451C120.736 97.1821 119.632 96.7006 118.554 96.7006C117.988 96.6905 117.427 96.7928 116.902 97.0016C116.377 97.2105 115.899 97.5215 115.496 97.9166C115.095 98.2961 114.775 98.753 114.557 99.2595C114.339 99.766 114.226 100.311 114.226 100.863C114.226 101.414 114.339 101.959 114.557 102.466C114.775 102.972 115.095 103.429 115.496 103.809C115.9 104.203 116.378 104.513 116.903 104.721C117.428 104.928 117.989 105.03 118.554 105.02C119.632 105.03 120.736 104.557 121.866 103.601Z" fill="black"/>
    <path d="M131.449 106.782L130.516 104.291H127.695L126.753 106.782H124.613L129.115 94.9616L133.581 106.782H131.449ZM129.803 102.446L129.097 100.605L128.414 102.446H129.803Z" fill="black"/>
    <path d="M141.026 96.8275H135.502V94.9692H144.445L138.445 104.926H143.969V106.782H135.038L141.026 96.8275Z" fill="black"/>
    <path d="M148.102 94.9692V106.782H146.084V94.9692H148.102Z" fill="black"/>
    <path d="M160.39 96.594C160.976 97.1415 161.442 97.8027 161.761 98.5369C162.08 99.2711 162.245 100.063 162.245 100.863C162.245 101.663 162.08 102.454 161.761 103.189C161.442 103.923 160.976 104.584 160.39 105.132C159.173 106.273 157.565 106.909 155.894 106.909C154.223 106.909 152.615 106.273 151.399 105.132C150.811 104.585 150.343 103.924 150.022 103.19C149.702 102.456 149.537 101.663 149.537 100.863C149.537 100.062 149.702 99.2699 150.022 98.5355C150.343 97.8012 150.811 97.1403 151.399 96.594C152.616 95.4543 154.224 94.8198 155.894 94.8198C157.565 94.8198 159.173 95.4543 160.39 96.594ZM155.893 96.6904C155.327 96.681 154.766 96.7842 154.241 96.9938C153.716 97.2035 153.238 97.5155 152.836 97.9115C152.432 98.2912 152.111 98.7489 151.891 99.2565C151.672 99.7642 151.559 100.311 151.559 100.864C151.559 101.417 151.672 101.964 151.891 102.471C152.111 102.979 152.432 103.437 152.836 103.816C153.658 104.602 154.754 105.041 155.893 105.041C157.033 105.041 158.128 104.602 158.951 103.816C159.354 103.437 159.675 102.979 159.895 102.471C160.114 101.964 160.227 101.417 160.227 100.864C160.227 100.311 160.114 99.7642 159.895 99.2565C159.675 98.7489 159.354 98.2912 158.951 97.9115C158.548 97.5151 158.071 97.2028 157.546 96.993C157.021 96.7833 156.459 96.6804 155.893 96.6904Z" fill="black"/>
    <path d="M171.265 107L165.583 99.384V106.792H163.575V94.9692H164.772L170.314 102.413V94.9692H172.352V107H171.265Z" fill="black"/>
    <path d="M181 94.9692V96.8275H176.111V99.9399H181V101.813H176.111V104.926H181V106.782H174.093V94.9692H181Z" fill="black"/>
    <path d="M100.209 2.3965V59.7375H86.3737V2.3965H100.209Z" fill="black"/>
    <path d="M130.799 2.3965H142.682V15.6915H130.799V59.7375H116.849V15.6915H104.973V2.3965H130.799Z" fill="black"/>
    <path d="M160.479 34.1147C156.598 32.0194 153.828 30.1459 152.168 28.4941C149.014 25.3918 147.437 21.7048 147.439 17.4331C147.441 13.1613 148.987 9.47518 152.076 6.37461C155.169 3.27235 158.961 1.72122 163.45 1.72122C167.897 1.72122 171.618 3.21142 174.612 6.19182C177.446 9.05545 178.862 12.3396 178.862 16.0444V19.2457L165.944 19.1873C165.496 17.175 165.092 15.9903 164.732 15.6332C164.568 15.4604 164.37 15.3228 164.151 15.229C163.932 15.1351 163.696 15.0869 163.458 15.0873C163.182 15.092 162.911 15.1522 162.659 15.2644C162.408 15.3765 162.182 15.5382 161.995 15.7398C161.773 15.9723 161.6 16.2467 161.486 16.5467C161.371 16.8468 161.318 17.1665 161.329 17.4873C161.34 17.8081 161.416 18.1234 161.551 18.4149C161.685 18.7063 161.877 18.9681 162.115 19.1848C162.64 19.789 163.955 20.7553 166.059 22.0839C170.426 24.4246 173.64 26.6248 175.7 28.6845C179.216 32.2708 180.975 36.5019 180.977 41.3778C180.977 46.4552 179.188 50.7963 175.609 54.4012C172.03 58.0061 167.634 59.8094 162.421 59.8111C157.203 59.8111 152.794 58.0078 149.195 54.4012C145.595 50.7946 143.796 45.6479 143.798 38.961L157.628 35.4069C157.628 40.9259 158.114 44.1602 159.086 45.1097C159.517 45.5577 160.035 45.9143 160.608 46.1582C161.181 46.402 161.798 46.5281 162.421 46.5288C163.632 46.5288 164.736 46.0558 165.733 45.1097C166.722 44.1602 167.218 42.9239 167.218 41.3905C167.225 40.732 167.092 40.0794 166.829 39.4754C166.565 38.8714 166.177 38.3293 165.69 37.8846C164.924 37.1044 163.187 35.8478 160.479 34.1147Z" fill="black"/>
    <path d="M77.5631 9.29661C77.5499 7.44431 76.9858 5.63751 75.942 4.10469C74.8982 2.57187 73.4216 1.38189 71.699 0.685249C69.9764 -0.0113926 68.0852 -0.183407 66.2645 0.19096C64.4438 0.565327 62.7754 1.46926 61.4703 2.78844C60.1652 4.10762 59.2821 5.78279 58.9325 7.6021C58.583 9.42141 58.7828 11.3031 59.5066 13.0093C60.2305 14.7155 61.4459 16.1694 62.9991 17.1873C64.5523 18.2052 66.3736 18.7413 68.2327 18.7278C70.7251 18.7097 73.1082 17.7059 74.8579 15.9373C76.6076 14.1687 77.5807 11.78 77.5631 9.29661Z" fill="#F54C00"/>
    <path d="M0.208931 2.31273C0.208931 43.5763 33.8998 77.1477 75.3133 77.1477V62.7408C41.8747 62.7408 14.6733 35.6328 14.6733 2.32035L0.208931 2.31273Z" fill="#F54C00"/>
    <path d="M27.9377 2.31273C27.9377 28.3417 49.1897 49.5168 75.3133 49.5168V35.1098C66.5864 35.0998 58.2199 31.6411 52.0491 25.4927C45.8783 19.3442 42.4071 11.008 42.397 2.31273H27.9377Z" fill="#F54C00"/>
    </g>
    <defs>
    <clipPath id="clip0_1_36">
    <rect width="181" height="107" fill="white"/>
    </clipPath>
    </defs>
    </svg>
    