<svg width="181" height="52" viewBox="0 0 181 52" fill="none" xmlns="http://www.w3.org/2000/svg">
    <path d="M6 25H1V8H6V25Z" fill="#0950BA"/>
    <path d="M13.4706 25H9V9.58139L10.4902 8H12.3529L23.5294 18.2791V8H28V23.4186L26.8824 25H24.2745L13.4706 15.1163V25Z" fill="#0950BA"/>
    <path d="M35.7754 25H31V8H49L45.3265 12.3488H35.4081V14.7209H47.898L44.9592 19.0697H35.7754V25Z" fill="#0950BA"/>
    <path d="M53.7461 18.6745L55.9365 20.6511H64.3334V25H55.2063L51.9206 23.4186L49.7302 20.6511L49 18.2791V13.1395L50.0952 11.1628L52.2857 9.18604L55.5714 8H65.0635L67.9841 9.18604L70.1746 11.1628L71.6349 13.1395L72 18.2791L71.6349 20.6511L69.0793 23.4186L65.0635 25V20.6511L67.2539 18.6745V14.7209L65.0635 12.7442H55.9365L53.7461 14.7209V18.6745Z" fill="#0950BA"/>
    <path d="M76.8965 20.6511L74 25H91.0173L93.9137 23.4186L95 21.4419V17.8837L94.2758 16.3023L91.3793 14.7209H79.431L78.7069 13.9302L79.0689 12.3488H91.7413L94.6379 8H78.7069L74.3621 12.3488V15.1163L77.9827 18.2791H90.2931V20.6511H76.8965Z" fill="#0950BA"/>
    <path d="M112.76 25H98V8H116L112.76 12.4524H102.68V14.4762H114.92L112.4 18.5239H102.68V20.5476H116L112.76 25Z" fill="#0950BA"/>
    <path d="M121.385 25H117L117.366 9.45454L118.828 7H120.289L131.616 17.6364V7.40909H136V22.9545L134.54 25H132.347L121.385 14.7727V25Z" fill="#0950BA"/>
    <path d="M154.293 17.7143H143.069H142.345L139.811 16.0952L138.724 14.0714V10.8333L140.173 9.21428L142.708 8H158.638L156.104 12.4524H143.793L143.069 13.2619L143.432 14.4762H155.38L157.914 15.6905L159 17.3095V20.5476L157.914 23.3809L155.38 25H138L141.259 20.5476H154.293L155.018 18.9285L154.293 17.7143Z" fill="#0950BA"/>
    <path d="M176.824 25H162V8H179.646L176.824 12.4524H166.589V14.4762H178.941L176.47 18.5239H166.589V20.5476H180L176.824 25Z" fill="#0950BA"/>
    <path fill-rule="evenodd" clip-rule="evenodd" d="M118.887 7H120.676L131.334 17.212V7.4113H136.372V23.5175L134.759 25.8211H132.27L121.971 16.0167V25.8211H116.924L117.295 9.72736L118.887 7ZM119.297 7.72389L118.009 9.93214L117.66 25.0972H121.252V14.3366L132.556 25.0972H134.387L135.655 23.2879V8.13518H132.053V18.8996L120.388 7.72389H119.297ZM1 7.4113H7.1192V25.8211H1V7.4113ZM1.71863 8.13518V25.0972H6.40057V8.13518H1.71863ZM10.9181 7.4113H13.0275L23.3224 17.6038V7.4113H28.3615V23.9229L27.1151 25.8211H24.2553L14.32 16.0367V25.8211H9.28087V9.28166L10.9181 7.4113ZM11.2426 8.13518L9.9995 9.55524V25.0972H13.6013V14.3166L24.5482 25.0972H26.7289L27.6429 23.7051V8.13518H24.041V19.3303L12.7335 8.13518H11.2426ZM30.8832 7.4113H49.6329L45.4564 12.6595H35.9222V14.4034H48.4615L45.1204 19.6517H36.2823V25.8211H30.8832V7.4113ZM31.6018 8.13518V25.0972H35.5637V18.9277H44.7275L47.147 15.1273H35.2036V11.9356H45.1116L48.1358 8.13518H31.6018ZM55.6595 7.4113H65.1593L68.1663 8.69948L70.3995 10.8255L71.9184 12.9944L72.2879 18.4813L71.9067 21.0937L69.2607 24.1165L64.7268 26V20.779L66.887 18.7224V14.9213L64.9432 13.0708H56.228L54.2842 14.9213V18.7224L56.228 20.573H64.7253V25.8211H55.2796L51.8884 24.0993L49.6382 21.1003L48.885 18.5192V13.0303L50.0347 10.8416L52.2903 8.69425L55.6595 7.4113ZM55.7907 8.13518L52.6792 9.32005L50.6144 11.2857L49.6038 13.21V18.415L50.2907 20.7694L52.361 23.5286L55.4505 25.0972H64.0067V21.2968H55.9422L53.5656 19.0343V14.6094L55.9422 12.3469H65.229L67.6056 14.6094V19.0343L65.4454 21.0909V24.9184L68.8323 23.5114L71.2267 20.7761L71.5657 18.4528L71.215 13.2459L69.8536 11.3018L67.7665 9.3148L65.0129 8.13518H55.7907ZM78.6146 7.4113H95.2665L91.9253 12.6595H79.4162L79.1577 13.8412L79.6498 14.4034H91.4636L94.53 16.1548L95.3286 17.9795V21.8473L94.1576 24.0767L91.1036 25.8211H73.4298L76.7709 20.573H89.9295V18.829H77.9087L74.0877 15.337V12.1517L78.6146 7.4113ZM78.9205 8.13518L74.8063 12.4434V15.0163L78.1861 18.1051H90.6481V21.2968H77.1638L74.7443 25.0972H90.914L93.6206 23.5513L94.6099 21.6677V18.132L93.9684 16.6663L91.274 15.1273H79.3253L78.3773 14.0443L78.8389 11.9356H91.5325L93.9519 8.13518H78.9205ZM161.577 7.77325H162.296V7.82261H180.595L177.254 13.0708H166.976V14.4034H179.862L176.898 19.2403H166.976V20.573H181L177.242 25.8211H161.577V7.77325ZM162.296 8.54648V25.0972H176.874L179.596 21.2968H166.258V18.5164H176.497L178.574 15.1273H166.258V12.3469H176.861L179.281 8.54648H162.296ZM97.4902 7.82261H116.554L112.795 13.0708H102.889V14.4034H115.415L112.452 19.2403H102.889V20.573H116.554L112.795 25.8211H97.4902V7.82261ZM98.2089 8.54648V25.0972H112.427L115.149 21.2968H102.171V18.5164H112.051L114.127 15.1273H102.171V12.3469H112.427L115.149 8.54648H98.2089ZM142.771 7.82261H159.31L156.386 13.0708H144.097L143.615 13.621L143.844 14.4034H155.538L158.222 15.717L159.415 17.5356V21.001L158.271 24.0531L155.562 25.8211H137.472L141.23 20.573H154.141L154.693 19.3132L154.17 18.4177H142.389L139.701 16.6631L138.535 14.4439V10.9269L140.112 9.12464L142.771 7.82261ZM142.937 8.54648L140.556 9.71226L139.253 11.2004V14.2642L140.248 16.158L142.601 17.6938H154.581L155.499 19.266L154.61 21.2968H141.598L138.876 25.0972H155.349L157.681 23.5749L158.697 20.8687V17.7533L157.73 16.2815L155.373 15.1273H143.306L142.814 13.4419L143.772 12.3469H155.965L158.083 8.54648H142.937Z" fill="#0950BA"/>
    <path d="M56.3063 41.2044C56.2385 41.2927 56.1707 41.3621 56.1028 41.4124C56.0412 41.4629 55.9486 41.4882 55.8254 41.4882C55.7082 41.4882 55.5942 41.4535 55.4831 41.3841C55.3722 41.3085 55.2396 41.2265 55.0855 41.1381C54.9313 41.0436 54.7464 40.9615 54.5305 40.8922C54.321 40.8164 54.0589 40.7786 53.7445 40.7786C53.3437 40.7786 52.9922 40.8543 52.6901 41.0057C52.3879 41.1507 52.1352 41.3621 51.9318 41.6396C51.7344 41.917 51.5865 42.2545 51.4879 42.6518C51.3891 43.0429 51.3398 43.4875 51.3398 43.9858C51.3398 44.503 51.3922 44.9634 51.4971 45.3671C51.6081 45.7708 51.7652 46.1113 51.9688 46.3889C52.1722 46.66 52.4189 46.8682 52.7086 47.0132C52.9984 47.152 53.3252 47.2214 53.6889 47.2214C54.0527 47.2214 54.3456 47.1772 54.5675 47.089C54.7957 46.9943 54.9868 46.8934 55.141 46.7862C55.2951 46.6727 55.4277 46.5718 55.5387 46.4835C55.6558 46.3889 55.7853 46.3415 55.9272 46.3415C56.1121 46.3415 56.2508 46.4141 56.3434 46.5591L57 47.4106C56.7471 47.7133 56.4728 47.9688 56.1768 48.177C55.8808 48.3787 55.5726 48.5428 55.252 48.6689C54.9375 48.7888 54.6108 48.8739 54.2716 48.9244C53.9387 48.9748 53.6057 49 53.2727 49C52.687 49 52.1352 48.8897 51.6173 48.6689C51.0994 48.4419 50.6462 48.1138 50.2578 47.685C49.8693 47.2561 49.561 46.7326 49.3329 46.1145C49.1109 45.49 49 44.7805 49 43.9858C49 43.2731 49.0986 42.6141 49.2958 42.0085C49.4994 41.3967 49.7953 40.8701 50.1838 40.4285C50.5723 39.9807 51.0532 39.6307 51.6266 39.3784C52.1999 39.1261 52.8597 39 53.6057 39C54.3148 39 54.9344 39.1167 55.4646 39.35C56.0011 39.5834 56.4821 39.9177 56.9075 40.3529L56.3063 41.2044Z" fill="black"/>
    <path d="M62.0147 39C62.7635 39 63.4433 39.1167 64.0542 39.35C64.6715 39.5834 65.1971 39.9145 65.6305 40.3435C66.0706 40.7723 66.4089 41.2957 66.6453 41.9139C66.8817 42.532 67 43.2226 67 43.9858C67 44.7553 66.8817 45.4491 66.6453 46.0672C66.4089 46.6853 66.0706 47.2119 65.6305 47.6471C65.1971 48.0823 64.6715 48.4166 64.0542 48.65C63.4433 48.8833 62.7635 49 62.0147 49C61.2595 49 60.5731 48.8833 59.9556 48.65C59.3383 48.4166 58.8096 48.0823 58.3695 47.6471C57.9359 47.2119 57.5976 46.6853 57.3547 46.0672C57.1181 45.4491 57 44.7553 57 43.9858C57 43.2226 57.1181 42.532 57.3547 41.9139C57.5976 41.2957 57.9359 40.7723 58.3695 40.3435C58.8096 39.9145 59.3383 39.5834 59.9556 39.35C60.5731 39.1167 61.2595 39 62.0147 39ZM62.0147 47.2025C62.8555 47.2025 63.4761 46.9313 63.8768 46.3889C64.284 45.8464 64.4876 45.0518 64.4876 44.0047C64.4876 42.9577 64.284 42.1599 63.8768 41.6112C63.4761 41.0624 62.8555 40.7881 62.0147 40.7881C61.1609 40.7881 60.527 41.0656 60.1133 41.6206C59.7061 42.1693 59.5024 42.9641 59.5024 44.0047C59.5024 45.0454 59.7061 45.8401 60.1133 46.3889C60.527 46.9313 61.1609 47.2025 62.0147 47.2025Z" fill="black"/>
    <path d="M70.0671 40.3628C70.252 40.1644 70.4459 39.9821 70.6487 39.8158C70.8576 39.643 71.0753 39.499 71.302 39.3838C71.5346 39.2623 71.7822 39.1695 72.0448 39.1056C72.3072 39.0352 72.5936 39 72.9038 39C73.4049 39 73.8494 39.0927 74.2372 39.2784C74.6249 39.4575 74.947 39.7134 75.2036 40.046C75.4661 40.3724 75.6629 40.7659 75.7941 41.2265C75.9314 41.6808 76 42.183 76 42.7332V49H73.7897V42.7332C73.7897 42.1318 73.6614 41.6679 73.4049 41.3417C73.1484 41.0089 72.7576 40.8426 72.2326 40.8426C71.8508 40.8426 71.4929 40.9354 71.1589 41.1209C70.8248 41.3065 70.5086 41.5592 70.2102 41.8791V49H68V39.1536H69.3512C69.6376 39.1536 69.8254 39.2974 69.9149 39.5854L70.0671 40.3628Z" fill="black"/>
    <path d="M83.3877 41.0416C83.3267 41.1424 83.2628 41.2148 83.1958 41.259C83.1288 41.2967 83.0435 41.3157 82.9399 41.3157C82.8302 41.3157 82.7114 41.2842 82.5836 41.2212C82.4617 41.1582 82.3185 41.0889 82.154 41.0132C81.9896 40.9313 81.8007 40.8589 81.5874 40.7958C81.3803 40.7328 81.1336 40.7013 80.8473 40.7013C80.4026 40.7013 80.0522 40.799 79.7963 40.9943C79.5466 41.1897 79.4216 41.4448 79.4216 41.76C79.4216 41.9678 79.4856 42.1443 79.6136 42.2892C79.7476 42.4279 79.9212 42.5507 80.1344 42.6579C80.3537 42.7649 80.6005 42.8626 80.8747 42.9508C81.1488 43.0327 81.426 43.1241 81.7062 43.225C81.9925 43.3258 82.2728 43.4424 82.547 43.5747C82.8211 43.7006 83.0649 43.8644 83.278 44.0661C83.4973 44.2615 83.671 44.4977 83.799 44.775C83.933 45.0522 84 45.3862 84 45.7769C84 46.2432 83.9178 46.6748 83.7532 47.0718C83.5949 47.4625 83.3572 47.8027 83.0404 48.0926C82.7237 48.3761 82.3308 48.5999 81.8616 48.7637C81.3986 48.9211 80.8625 49 80.2532 49C79.9303 49 79.6136 48.9685 79.3029 48.9054C78.9983 48.8488 78.7028 48.7669 78.4164 48.6597C78.1362 48.5526 77.8743 48.4265 77.6305 48.2817C77.393 48.1366 77.1827 47.9792 77 47.809L77.5208 46.9205C77.5878 46.8135 77.6671 46.7316 77.7584 46.6748C77.8498 46.6181 77.9656 46.5897 78.1057 46.5897C78.2459 46.5897 78.3768 46.6308 78.4987 46.7127C78.6267 46.7946 78.7728 46.8828 78.9373 46.9773C79.1018 47.0718 79.2937 47.16 79.5131 47.2419C79.7384 47.3238 80.0218 47.3648 80.3629 47.3648C80.6309 47.3648 80.8595 47.3334 81.0483 47.2702C81.2432 47.201 81.4016 47.1128 81.5235 47.0056C81.6514 46.8986 81.7428 46.7756 81.7977 46.637C81.8585 46.4921 81.889 46.344 81.889 46.1928C81.889 45.966 81.822 45.7801 81.6879 45.6351C81.5601 45.4902 81.3864 45.3642 81.1671 45.2571C80.9538 45.1499 80.7072 45.0554 80.4269 44.9735C80.1527 44.8853 79.8695 44.7908 79.577 44.69C79.2907 44.5891 79.0073 44.4726 78.7272 44.3402C78.453 44.2016 78.2062 44.0284 77.9869 43.8204C77.7738 43.6125 77.6001 43.3573 77.4661 43.0548C77.3381 42.7523 77.2742 42.3869 77.2742 41.9584C77.2742 41.5614 77.3502 41.1833 77.5025 40.8242C77.6548 40.465 77.8772 40.1531 78.1697 39.8885C78.4682 39.6175 78.8368 39.4033 79.2755 39.2457C79.7202 39.0819 80.232 39 80.8107 39C81.4565 39 82.0443 39.1102 82.5743 39.3308C83.1044 39.5514 83.5461 39.8413 83.8995 40.2004L83.3877 41.0416Z" fill="black"/>
    <path d="M93 39V48.8464H91.6487C91.3564 48.8464 91.1715 48.7024 91.094 48.4145L90.9418 47.6276C90.5659 48.0371 90.1513 48.3698 89.6979 48.6257C89.2445 48.8752 88.7106 49 88.0962 49C87.5951 49 87.1506 48.9104 86.7629 48.7313C86.381 48.5458 86.0589 48.2866 85.7964 47.9538C85.5339 47.6212 85.3341 47.2277 85.1968 46.7735C85.0656 46.3128 85 45.8074 85 45.2572V39H87.2103V45.2572C87.2103 45.8586 87.3385 46.3257 87.5951 46.6583C87.8575 46.9847 88.2483 47.1478 88.7673 47.1478C89.1491 47.1478 89.507 47.0582 89.8411 46.8791C90.1751 46.6935 90.4914 46.4408 90.7897 46.1209V39H93Z" fill="black"/>
    <path d="M98 35V49H95V35H98Z" fill="black"/>
    <path d="M108.631 48.851H106.513V41.0173H102.431V46.1962C102.431 46.4943 102.496 46.7272 102.628 46.8949C102.765 47.0626 102.951 47.1463 103.185 47.1463C103.317 47.1463 103.425 47.1308 103.511 47.0997C103.603 47.0626 103.68 47.0253 103.743 46.988C103.811 46.9507 103.871 46.9165 103.923 46.8855C103.974 46.8483 104.026 46.8297 104.077 46.8297C104.14 46.8297 104.192 46.8483 104.232 46.8855C104.272 46.9165 104.315 46.9662 104.36 47.0345L104.995 48.1523C104.686 48.4317 104.332 48.6429 103.931 48.7858C103.531 48.9285 103.117 49 102.688 49C101.922 49 101.333 48.7671 100.921 48.3013C100.515 47.8294 100.312 47.1805 100.312 46.3546V41.0173H99.4117C99.2974 41.0173 99.2002 40.977 99.1201 40.8961C99.0401 40.8154 99 40.6944 99 40.533V39.6201L100.415 39.3593L100.861 36.7605C100.89 36.6362 100.944 36.54 101.024 36.4717C101.104 36.4035 101.207 36.3693 101.333 36.3693H102.431V39.3779H108.631V48.851ZM109 36.4717C109 36.6704 108.963 36.8598 108.889 37.0399C108.814 37.2137 108.714 37.3659 108.588 37.4963C108.468 37.6267 108.323 37.7323 108.151 37.813C107.985 37.8875 107.808 37.9248 107.619 37.9248C107.436 37.9248 107.265 37.8875 107.105 37.813C106.945 37.7323 106.804 37.6267 106.684 37.4963C106.564 37.3659 106.467 37.2137 106.393 37.0399C106.324 36.8598 106.29 36.6704 106.29 36.4717C106.29 36.2668 106.324 36.0773 106.393 35.9035C106.467 35.7234 106.564 35.5681 106.684 35.4377C106.804 35.3012 106.945 35.1956 107.105 35.1211C107.265 35.0404 107.436 35 107.619 35C107.808 35 107.985 35.0404 108.151 35.1211C108.323 35.1956 108.468 35.3012 108.588 35.4377C108.714 35.5681 108.814 35.7234 108.889 35.9035C108.963 36.0773 109 36.2668 109 36.4717Z" fill="black"/>
    <path d="M113.067 40.3628C113.252 40.1644 113.446 39.9821 113.649 39.8158C113.858 39.643 114.075 39.499 114.302 39.3838C114.535 39.2623 114.782 39.1695 115.045 39.1056C115.307 39.0352 115.594 39 115.904 39C116.405 39 116.849 39.0927 117.237 39.2784C117.625 39.4575 117.948 39.7134 118.204 40.046C118.466 40.3724 118.663 40.7659 118.794 41.2265C118.932 41.6808 119 42.183 119 42.7332V49H116.79V42.7332C116.79 42.1318 116.662 41.6679 116.405 41.3417C116.149 41.0089 115.758 40.8426 115.233 40.8426C114.851 40.8426 114.493 40.9354 114.159 41.1209C113.825 41.3065 113.509 41.5592 113.21 41.8791V49H111V39.1536H112.351C112.638 39.1536 112.825 39.2974 112.915 39.5854L113.067 40.3628Z" fill="black"/>
    <path d="M124.144 43.6818C124.428 43.6818 124.674 43.6449 124.884 43.5708C125.094 43.4906 125.266 43.3827 125.402 43.247C125.544 43.1112 125.648 42.9478 125.716 42.7566C125.79 42.5654 125.827 42.3557 125.827 42.1275C125.827 41.6586 125.685 41.2885 125.402 41.0171C125.124 40.7396 124.705 40.6007 124.144 40.6007C123.582 40.6007 123.16 40.7396 122.877 41.0171C122.6 41.2885 122.46 41.6586 122.46 42.1275C122.46 42.3495 122.494 42.5561 122.563 42.7474C122.637 42.9386 122.74 43.1051 122.877 43.247C123.019 43.3827 123.194 43.4906 123.403 43.5708C123.619 43.6449 123.867 43.6818 124.144 43.6818ZM126.724 49.0855C126.724 48.9004 126.669 48.7492 126.558 48.632C126.447 48.5149 126.297 48.4254 126.104 48.3637C125.913 48.2959 125.689 48.2465 125.43 48.2157C125.176 48.1849 124.905 48.1632 124.615 48.1509C124.332 48.1324 124.036 48.117 123.728 48.1047C123.426 48.0924 123.13 48.0676 122.84 48.0306C122.586 48.1726 122.38 48.339 122.22 48.5303C122.066 48.7215 121.988 48.9435 121.988 49.1965C121.988 49.3631 122.029 49.5172 122.109 49.6592C122.195 49.8072 122.327 49.9336 122.506 50.0384C122.692 50.1433 122.929 50.2235 123.219 50.2791C123.508 50.3407 123.863 50.3716 124.282 50.3716C124.708 50.3716 125.075 50.3376 125.383 50.2698C125.691 50.2081 125.944 50.1186 126.141 50.0015C126.345 49.8904 126.494 49.7547 126.586 49.5944C126.679 49.4401 126.724 49.2704 126.724 49.0855ZM129 39.4904V40.3417C129 40.613 128.836 40.7796 128.51 40.8413L127.659 40.9986C127.788 41.3256 127.854 41.6833 127.854 42.0719C127.854 42.5407 127.757 42.9663 127.566 43.3488C127.381 43.7251 127.123 44.0458 126.79 44.3111C126.457 44.5763 126.061 44.7829 125.605 44.931C125.155 45.0728 124.668 45.1438 124.144 45.1438C123.958 45.1438 123.781 45.1346 123.607 45.1161C123.434 45.0976 123.265 45.0728 123.099 45.042C122.803 45.2209 122.655 45.4214 122.655 45.6434C122.655 45.8347 122.74 45.9765 122.914 46.069C123.093 46.1554 123.327 46.2171 123.617 46.2541C123.906 46.2912 124.237 46.3158 124.607 46.3282C124.976 46.3343 125.356 46.3528 125.744 46.3836C126.133 46.4145 126.511 46.47 126.882 46.5502C127.252 46.6242 127.581 46.7445 127.872 46.9111C128.162 47.0777 128.392 47.3059 128.565 47.5958C128.744 47.8796 128.834 48.2465 128.834 48.6969C128.834 49.1163 128.729 49.5234 128.519 49.9182C128.316 50.313 128.016 50.6646 127.622 50.973C127.234 51.2814 126.753 51.5281 126.178 51.7132C125.611 51.9044 124.964 52 124.237 52C123.521 52 122.898 51.9291 122.368 51.7872C121.838 51.6516 121.396 51.4665 121.045 51.232C120.694 51.0038 120.431 50.7386 120.259 50.4363C120.086 50.1341 120 49.8195 120 49.4926C120 49.0484 120.133 48.6784 120.398 48.3823C120.669 48.0799 121.039 47.8394 121.507 47.6605C121.255 47.531 121.054 47.3582 120.906 47.1424C120.758 46.9265 120.684 46.6427 120.684 46.2912C120.684 46.1492 120.709 46.0043 120.758 45.8562C120.813 45.7021 120.891 45.5509 120.99 45.4029C121.094 45.2548 121.224 45.1161 121.378 44.9865C121.532 44.8508 121.714 44.7305 121.924 44.6257C121.442 44.3666 121.064 44.0212 120.786 43.5893C120.515 43.1576 120.379 42.6518 120.379 42.0719C120.379 41.6031 120.472 41.1806 120.657 40.8043C120.848 40.4218 121.109 40.098 121.442 39.8327C121.782 39.5614 122.179 39.3547 122.637 39.2128C123.099 39.071 123.601 39 124.144 39C124.551 39 124.933 39.0431 125.291 39.1295C125.648 39.2097 125.975 39.33 126.271 39.4904H129Z" fill="black"/>
    <path fill-rule="evenodd" clip-rule="evenodd" d="M178 31H2V30H178V31Z" fill="black"/>
    </svg>
    