<svg width="109" height="28" viewBox="0 0 109 28" fill="none" xmlns="http://www.w3.org/2000/svg">
<path d="M3.26612 11.8407H0V1.03017H3.26612V11.8407Z" fill="white"/>
<path d="M7.62094 11.8407H5.00804V2.0358L5.87901 1.03017H6.96771L13.4999 7.56678V1.03017H16.1128V10.8351L15.4596 11.8407H13.9354L7.62094 5.55551V11.8407Z" fill="white"/>
<path d="M20.9031 11.8407H18.0725V1.03017H28.7418L26.5644 3.79566H20.6854V5.3041H28.0886L26.3467 8.06959H20.9031V11.8407Z" fill="white"/>
<path d="M31.7902 7.81818L33.0966 9.07522H38.1047V11.8407H32.6612L30.7015 10.8351L29.395 9.07522L28.9596 7.56678V4.29847L29.6128 3.04143L30.9192 1.78439L32.8789 1.03017H38.5402L40.2821 1.78439L41.5885 3.04143L42.4595 4.29847L42.6772 7.56678L42.4595 9.07522L40.9353 10.8351L38.5402 11.8407V9.07522L39.8466 7.81818V5.3041L38.5402 4.04707H33.0966L31.7902 5.3041V7.81818Z" fill="white"/>
<path d="M45.7256 9.07522L43.9837 11.8407H54.2175L55.9594 10.8351L56.6127 9.57804V7.31537L56.1772 6.30974L54.4353 5.3041H47.2498L46.8143 4.80129L47.0321 3.79566H54.653L56.3949 1.03017H46.8143L44.2014 3.79566V5.55551L46.3788 7.56678H53.782V9.07522H45.7256Z" fill="white"/>
<path d="M67.282 11.8407H58.3546V1.28158H69.2417L67.282 4.04707H61.1852V5.3041H68.5884L67.0642 7.81818H61.1852V9.07522H69.2417L67.282 11.8407Z" fill="white"/>
<path d="M72.7255 11.8407H70.1126L70.3304 2.28721L71.2013 0.778763H72.0723L78.8223 7.31537V1.03017H81.4352V10.5837L80.5642 11.8407H79.2577L72.7255 5.55551V11.8407Z" fill="white"/>
<path d="M92.5399 7.31537H85.79H85.3545L83.8303 6.30974L83.1771 5.0527V3.04143L84.048 2.0358L85.5722 1.28158H95.1528L93.6287 4.04707H86.2255L85.79 4.54988L86.0077 5.3041H93.1932L94.7174 6.05833L95.3706 7.06396V9.07522L94.7174 10.8351L93.1932 11.8407H82.7416L84.7013 9.07522H92.5399L92.9754 8.06959L92.5399 7.31537Z" fill="white"/>
<path d="M106.258 11.8407H97.1125V1.28158H108L106.258 4.04707H99.9431V5.3041H107.564L106.04 7.81818H99.9431V9.07522H108.217L106.258 11.8407Z" fill="white"/>
<path d="M33.4019 21.5254C33.362 21.5771 33.3222 21.6176 33.2823 21.6471C33.2461 21.6766 33.1918 21.6914 33.1194 21.6914C33.0506 21.6914 32.9835 21.6711 32.9184 21.6305C32.8532 21.5863 32.7753 21.5383 32.6848 21.4867C32.5942 21.4314 32.4856 21.3835 32.3588 21.3429C32.2357 21.2987 32.0817 21.2765 31.897 21.2765C31.6616 21.2765 31.4552 21.3208 31.2777 21.4093C31.1002 21.4941 30.9518 21.6176 30.8322 21.7799C30.7163 21.9421 30.6294 22.1394 30.5715 22.3717C30.5135 22.6003 30.4846 22.8602 30.4846 23.1515C30.4846 23.4539 30.5153 23.7231 30.5769 23.9591C30.6421 24.1951 30.7345 24.3942 30.854 24.5564C30.9735 24.715 31.1184 24.8366 31.2886 24.9215C31.4588 25.0026 31.6508 25.0431 31.8644 25.0431C32.0781 25.0431 32.2501 25.0173 32.3805 24.9657C32.5145 24.9104 32.6268 24.8514 32.7174 24.7887C32.8079 24.7223 32.8858 24.6633 32.951 24.6117C33.0198 24.5564 33.0958 24.5288 33.1791 24.5288C33.2878 24.5288 33.3693 24.5712 33.4236 24.656L33.8093 25.1538C33.6608 25.3307 33.4996 25.4801 33.3258 25.6018C33.152 25.7198 32.9709 25.8156 32.7825 25.8894C32.5978 25.9594 32.4059 26.0092 32.2067 26.0387C32.0111 26.0682 31.8155 26.083 31.62 26.083C31.2759 26.083 30.9518 26.0184 30.6475 25.8894C30.3433 25.7566 30.0771 25.5649 29.8489 25.3142C29.6208 25.0634 29.4397 24.7574 29.3057 24.396C29.1753 24.031 29.1101 23.6161 29.1101 23.1515C29.1101 22.7349 29.1681 22.3496 29.284 21.9956C29.4035 21.6379 29.5773 21.33 29.8055 21.0719C30.0336 20.8101 30.3161 20.6055 30.653 20.458C30.9898 20.3105 31.3773 20.2367 31.8155 20.2367C32.232 20.2367 32.596 20.3049 32.9075 20.4414C33.2226 20.5778 33.5051 20.7732 33.755 21.0276L33.4019 21.5254Z" fill="white"/>
<path d="M36.8421 20.2367C37.255 20.2367 37.6299 20.3049 37.9667 20.4414C38.3071 20.5778 38.5969 20.7714 38.8359 21.0221C39.0786 21.2729 39.2651 21.5789 39.3955 21.9403C39.5258 22.3016 39.591 22.7054 39.591 23.1515C39.591 23.6014 39.5258 24.007 39.3955 24.3684C39.2651 24.7297 39.0786 25.0376 38.8359 25.292C38.5969 25.5465 38.3071 25.7419 37.9667 25.8783C37.6299 26.0147 37.255 26.083 36.8421 26.083C36.4256 26.083 36.0472 26.0147 35.7067 25.8783C35.3663 25.7419 35.0747 25.5465 34.8321 25.292C34.593 25.0376 34.4065 24.7297 34.2725 24.3684C34.1421 24.007 34.0769 23.6014 34.0769 23.1515C34.0769 22.7054 34.1421 22.3016 34.2725 21.9403C34.4065 21.5789 34.593 21.2729 34.8321 21.0221C35.0747 20.7714 35.3663 20.5778 35.7067 20.4414C36.0472 20.3049 36.4256 20.2367 36.8421 20.2367ZM36.8421 25.0321C37.3057 25.0321 37.648 24.8735 37.8689 24.5564C38.0934 24.2393 38.2057 23.7747 38.2057 23.1626C38.2057 22.5505 38.0934 22.0841 37.8689 21.7633C37.648 21.4425 37.3057 21.2821 36.8421 21.2821C36.3713 21.2821 36.0218 21.4443 35.7936 21.7688C35.5691 22.0896 35.4568 22.5542 35.4568 23.1626C35.4568 23.771 35.5691 24.2356 35.7936 24.5564C36.0218 24.8735 36.3713 25.0321 36.8421 25.0321Z" fill="white"/>
<path d="M41.6904 21.0221C41.8027 20.9078 41.9204 20.8027 42.0435 20.7069C42.1703 20.6073 42.3025 20.5243 42.4401 20.458C42.5813 20.3879 42.7316 20.3344 42.891 20.2976C43.0503 20.257 43.2242 20.2367 43.4125 20.2367C43.7167 20.2367 43.9866 20.2902 44.222 20.3971C44.4574 20.5004 44.653 20.6479 44.8087 20.8396C44.9681 21.0276 45.0876 21.2544 45.1672 21.5199C45.2505 21.7817 45.2922 22.0712 45.2922 22.3883V26H43.9503V22.3883C43.9503 22.0417 43.8725 21.7743 43.7167 21.5863C43.561 21.3945 43.3238 21.2987 43.0051 21.2987C42.7733 21.2987 42.556 21.3521 42.3532 21.4591C42.1503 21.566 41.9584 21.7116 41.7773 21.896V26H40.4355V20.3252H41.2558C41.4296 20.3252 41.5437 20.4082 41.598 20.5741L41.6904 21.0221Z" fill="white"/>
<path d="M49.7899 21.4314C49.7537 21.4904 49.7156 21.5328 49.6758 21.5586C49.636 21.5807 49.5853 21.5918 49.5237 21.5918C49.4585 21.5918 49.3879 21.5734 49.3118 21.5365C49.2394 21.4996 49.1543 21.4591 49.0565 21.4148C48.9587 21.3669 48.8464 21.3245 48.7197 21.2876C48.5965 21.2507 48.4498 21.2323 48.2796 21.2323C48.0152 21.2323 47.807 21.2894 47.6549 21.4038C47.5064 21.5181 47.4321 21.6674 47.4321 21.8518C47.4321 21.9734 47.4702 22.0767 47.5462 22.1615C47.6259 22.2426 47.7291 22.3145 47.8559 22.3772C47.9863 22.4399 48.1329 22.497 48.2959 22.5487C48.4589 22.5966 48.6237 22.6501 48.7903 22.7091C48.9605 22.7681 49.1271 22.8363 49.2901 22.9137C49.4531 22.9875 49.5979 23.0833 49.7247 23.2013C49.8551 23.3156 49.9583 23.4539 50.0343 23.6161C50.114 23.7784 50.1539 23.9738 50.1539 24.2024C50.1539 24.4753 50.105 24.7279 50.0072 24.9602C49.913 25.1888 49.7718 25.3879 49.5834 25.5575C49.3951 25.7234 49.1615 25.8543 48.8826 25.9502C48.6074 26.0424 48.2887 26.0885 47.9265 26.0885C47.7345 26.0885 47.5462 26.0701 47.3615 26.0332C47.1804 26 47.0048 25.9521 46.8345 25.8894C46.6679 25.8267 46.5122 25.7529 46.3673 25.6681C46.2261 25.5833 46.1011 25.4911 45.9925 25.3916L46.3022 24.8717C46.342 24.809 46.3891 24.7611 46.4434 24.7279C46.4977 24.6947 46.5665 24.6781 46.6498 24.6781C46.7331 24.6781 46.811 24.7021 46.8834 24.75C46.9595 24.7979 47.0464 24.8496 47.1442 24.9049C47.242 24.9602 47.3561 25.0118 47.4865 25.0597C47.6205 25.1077 47.7889 25.1316 47.9917 25.1316C48.151 25.1316 48.2869 25.1132 48.3991 25.0763C48.515 25.0358 48.6092 24.9841 48.6816 24.9215C48.7577 24.8588 48.812 24.7869 48.8446 24.7057C48.8808 24.6209 48.8989 24.5343 48.8989 24.4458C48.8989 24.313 48.8591 24.2043 48.7794 24.1195C48.7034 24.0347 48.6001 23.9609 48.4698 23.8982C48.343 23.8355 48.1963 23.7802 48.0297 23.7323C47.8667 23.6807 47.6983 23.6254 47.5245 23.5664C47.3543 23.5074 47.1859 23.4392 47.0193 23.3617C46.8563 23.2806 46.7096 23.1792 46.5792 23.0575C46.4525 22.9358 46.3492 22.7865 46.2696 22.6095C46.1935 22.4325 46.1555 22.2187 46.1555 21.9679C46.1555 21.7356 46.2007 21.5144 46.2913 21.3042C46.3818 21.094 46.514 20.9115 46.6879 20.7566C46.8653 20.5981 47.0844 20.4727 47.3452 20.3805C47.6096 20.2847 47.9138 20.2367 48.2579 20.2367C48.6418 20.2367 48.9913 20.3012 49.3064 20.4303C49.6215 20.5594 49.884 20.729 50.0941 20.9392L49.7899 21.4314Z" fill="white"/>
<path d="M55.787 20.3252V26H54.9666C54.7892 26 54.6769 25.917 54.6298 25.7511L54.5375 25.2976C54.3093 25.5335 54.0576 25.7253 53.7823 25.8728C53.5071 26.0166 53.1829 26.0885 52.8099 26.0885C52.5057 26.0885 52.2358 26.0369 52.0004 25.9336C51.7686 25.8267 51.5731 25.6774 51.4137 25.4856C51.2544 25.2939 51.133 25.0671 51.0497 24.8053C50.9701 24.5398 50.9302 24.2485 50.9302 23.9314V20.3252H52.2721V23.9314C52.2721 24.278 52.3499 24.5472 52.5057 24.7389C52.665 24.927 52.9022 25.021 53.2173 25.021C53.4491 25.021 53.6664 24.9694 53.8692 24.8661C54.0721 24.7592 54.264 24.6136 54.4451 24.4292V20.3252H55.787Z" fill="white"/>
<path d="M58.2963 17.781V26H56.9545V17.781H58.2963Z" fill="white"/>
<path d="M65.0767 26H63.7348V21.3484H61.1489V24.4237C61.1489 24.6007 61.1906 24.7389 61.2739 24.8385C61.3608 24.938 61.4785 24.9878 61.627 24.9878C61.7103 24.9878 61.7791 24.9786 61.8334 24.9602C61.8914 24.938 61.9403 24.9159 61.9801 24.8938C62.0236 24.8717 62.0616 24.8514 62.0942 24.833C62.1268 24.8108 62.1594 24.7998 62.192 24.7998C62.2318 24.7998 62.2644 24.8108 62.2898 24.833C62.3151 24.8514 62.3423 24.8809 62.3713 24.9215L62.7733 25.5852C62.5777 25.7511 62.3532 25.8765 62.0996 25.9613C61.8461 26.0461 61.5835 26.0885 61.3119 26.0885C60.8266 26.0885 60.4536 25.9502 60.1928 25.6737C59.9356 25.3934 59.8071 25.0081 59.8071 24.5177V21.3484H59.2367C59.1642 21.3484 59.1026 21.3245 59.0519 21.2765C59.0012 21.2286 58.9759 21.1567 58.9759 21.0608V20.5188L59.8723 20.3639L60.1548 18.8208C60.1729 18.747 60.2073 18.6899 60.258 18.6493C60.3087 18.6088 60.3739 18.5885 60.4536 18.5885H61.1489V20.375H65.0767V26ZM65.3103 18.6493C65.3103 18.7673 65.2868 18.8798 65.2397 18.9867C65.1926 19.09 65.1292 19.1803 65.0495 19.2577C64.9735 19.3352 64.8811 19.3979 64.7725 19.4458C64.6674 19.49 64.5552 19.5122 64.4356 19.5122C64.3198 19.5122 64.2111 19.49 64.1097 19.4458C64.0083 19.3979 63.9196 19.3352 63.8435 19.2577C63.7674 19.1803 63.7059 19.09 63.6588 18.9867C63.6153 18.8798 63.5936 18.7673 63.5936 18.6493C63.5936 18.5276 63.6153 18.4152 63.6588 18.3119C63.7059 18.205 63.7674 18.1128 63.8435 18.0354C63.9196 17.9543 64.0083 17.8916 64.1097 17.8473C64.2111 17.7994 64.3198 17.7754 64.4356 17.7754C64.5552 17.7754 64.6674 17.7994 64.7725 17.8473C64.8811 17.8916 64.9735 17.9543 65.0495 18.0354C65.1292 18.1128 65.1926 18.205 65.2397 18.3119C65.2868 18.4152 65.3103 18.5276 65.3103 18.6493Z" fill="white"/>
<path d="M67.522 21.0221C67.6342 20.9078 67.7519 20.8027 67.8751 20.7069C68.0018 20.6073 68.134 20.5243 68.2717 20.458C68.4129 20.3879 68.5632 20.3344 68.7226 20.2976C68.8819 20.257 69.0558 20.2367 69.2441 20.2367C69.5483 20.2367 69.8181 20.2902 70.0535 20.3971C70.289 20.5004 70.4845 20.6479 70.6403 20.8396C70.7996 21.0276 70.9191 21.2544 70.9988 21.5199C71.0821 21.7817 71.1238 22.0712 71.1238 22.3883V26H69.7819V22.3883C69.7819 22.0417 69.704 21.7743 69.5483 21.5863C69.3926 21.3945 69.1554 21.2987 68.8366 21.2987C68.6049 21.2987 68.3876 21.3521 68.1847 21.4591C67.9819 21.566 67.79 21.7116 67.6089 21.896V26H66.267V20.3252H67.0873C67.2612 20.3252 67.3753 20.4082 67.4296 20.5741L67.522 21.0221Z" fill="white"/>
<path d="M74.2579 23.0243C74.4245 23.0243 74.5693 23.0022 74.6925 22.958C74.8156 22.91 74.917 22.8455 74.9967 22.7644C75.08 22.6833 75.1416 22.5855 75.1814 22.4712C75.2249 22.3569 75.2466 22.2316 75.2466 22.0951C75.2466 21.8149 75.1633 21.5937 74.9967 21.4314C74.8337 21.2655 74.5874 21.1825 74.2579 21.1825C73.9283 21.1825 73.6802 21.2655 73.5136 21.4314C73.3506 21.5937 73.2691 21.8149 73.2691 22.0951C73.2691 22.2279 73.2891 22.3514 73.3289 22.4657C73.3723 22.58 73.4339 22.6796 73.5136 22.7644C73.5969 22.8455 73.7001 22.91 73.8233 22.958C73.95 23.0022 74.0949 23.0243 74.2579 23.0243ZM75.7736 26.2544C75.7736 26.1438 75.741 26.0535 75.6758 25.9834C75.6106 25.9133 75.5219 25.8599 75.4096 25.823C75.2973 25.7824 75.1651 25.7529 75.013 25.7345C74.8645 25.7161 74.7051 25.7032 74.5349 25.6958C74.3683 25.6847 74.1945 25.6755 74.0134 25.6681C73.8359 25.6608 73.6621 25.646 73.4919 25.6239C73.3434 25.7087 73.222 25.8083 73.1279 25.9226C73.0373 26.0369 72.9921 26.1696 72.9921 26.3208C72.9921 26.4203 73.0156 26.5125 73.0627 26.5973C73.1134 26.6858 73.1913 26.7614 73.2963 26.8241C73.4049 26.8868 73.5444 26.9347 73.7146 26.9679C73.8848 27.0048 74.0931 27.0232 74.3394 27.0232C74.5893 27.0232 74.8047 27.0029 74.9858 26.9624C75.1669 26.9255 75.3154 26.872 75.4313 26.802C75.5508 26.7356 75.6377 26.6545 75.6921 26.5586C75.7464 26.4664 75.7736 26.365 75.7736 26.2544ZM77.11 20.5188V21.0276C77.11 21.1899 77.014 21.2894 76.8221 21.3263L76.3223 21.4203C76.3983 21.6158 76.4363 21.8296 76.4363 22.0619C76.4363 22.3422 76.3802 22.5966 76.2679 22.8252C76.1593 23.0501 76.0072 23.2419 75.8116 23.4004C75.616 23.559 75.3842 23.6825 75.1162 23.771C74.8518 23.8558 74.5657 23.8982 74.2579 23.8982C74.1492 23.8982 74.0442 23.8927 73.9428 23.8816C73.8414 23.8706 73.7418 23.8558 73.644 23.8374C73.4701 23.9443 73.3832 24.0642 73.3832 24.1969C73.3832 24.3112 73.4339 24.396 73.5353 24.4513C73.6404 24.5029 73.778 24.5398 73.9482 24.5619C74.1184 24.5841 74.3122 24.5988 74.5295 24.6062C74.7468 24.6099 74.9695 24.6209 75.1977 24.6394C75.4259 24.6578 75.6486 24.691 75.8659 24.7389C76.0832 24.7832 76.277 24.8551 76.4472 24.9546C76.6174 25.0542 76.7532 25.1906 76.8546 25.3639C76.9597 25.5335 77.0122 25.7529 77.0122 26.0221C77.0122 26.2729 76.9506 26.5162 76.8275 26.7522C76.708 26.9882 76.5323 27.1984 76.3005 27.3827C76.0723 27.5671 75.7899 27.7146 75.453 27.8252C75.1198 27.9395 74.7396 27.9967 74.3122 27.9967C73.8921 27.9967 73.5263 27.9543 73.2148 27.8695C72.9033 27.7883 72.6444 27.6777 72.4379 27.5376C72.2315 27.4012 72.0776 27.2426 71.9762 27.0619C71.8748 26.8813 71.8241 26.6932 71.8241 26.4978C71.8241 26.2323 71.9019 26.0111 72.0577 25.8341C72.217 25.6534 72.4343 25.5096 72.7096 25.4026C72.5611 25.3252 72.4434 25.222 72.3565 25.0929C72.2695 24.9639 72.2261 24.7942 72.2261 24.5841C72.2261 24.4993 72.2406 24.4126 72.2695 24.3241C72.3021 24.2319 72.3474 24.1416 72.4053 24.0531C72.4669 23.9646 72.543 23.8816 72.6335 23.8042C72.7241 23.7231 72.8309 23.6512 72.954 23.5885C72.6715 23.4336 72.4488 23.2271 72.2858 22.969C72.1265 22.7109 72.0468 22.4085 72.0468 22.0619C72.0468 21.7817 72.1011 21.5291 72.2098 21.3042C72.322 21.0756 72.476 20.882 72.6715 20.7234C72.8707 20.5612 73.1043 20.4377 73.3724 20.3529C73.644 20.2681 73.9392 20.2257 74.2579 20.2257C74.4969 20.2257 74.7214 20.2515 74.9315 20.3031C75.1416 20.351 75.3335 20.4229 75.5074 20.5188H77.11Z" fill="white"/>
<path fill-rule="evenodd" clip-rule="evenodd" d="M106.913 14.9381H0.43457V14.4956H106.913V14.9381Z" fill="white"/>
</svg>
