<svg width="181" height="52" viewBox="0 0 181 52" fill="none" xmlns="http://www.w3.org/2000/svg">
    <path d="M54.72 51.1348H49.0209V27.2701H54.4351L54.72 29.7169V29.9296H54.7913C55.1949 28.9604 55.7649 28.2512 56.501 27.802C57.2609 27.3292 58.3532 27.0928 59.778 27.0928C62.0814 27.0928 63.7674 27.7666 64.836 29.1141C65.9283 30.4379 66.4864 32.4473 66.5101 35.1423C66.5576 37.5299 66.3083 39.4448 65.7621 40.8868C65.2397 42.3052 64.4204 43.3217 63.3044 43.9364C62.1883 44.551 60.7635 44.8583 59.03 44.8583C58.1276 44.8583 57.3084 44.7756 56.5722 44.6101C55.8598 44.4446 55.2662 44.2437 54.7913 44.0073L54.72 44.0428V51.1348ZM57.9258 31.9154C56.9759 31.9154 56.2042 32.2109 55.6105 32.8019C55.0169 33.3693 54.72 34.3503 54.72 35.7451V39.4684C55.5986 39.823 56.6316 40.0003 57.8189 40.0003C58.935 40.0003 59.7305 39.7403 60.2054 39.2202C60.7041 38.6765 60.9535 37.6008 60.9535 35.9933C60.9535 34.5986 60.7635 33.5702 60.3835 32.9083C60.0036 32.2464 59.1844 31.9154 57.9258 31.9154Z" fill="#280E71"/>
    <path d="M75.2431 44.5392H69.5439V27.2701H74.1745L74.6375 30.8161H74.7444C74.9581 29.4923 75.4687 28.5467 76.276 27.9793C77.0834 27.3883 78.2826 27.0928 79.8736 27.0928C80.5148 27.0928 81.0966 27.1283 81.619 27.1992C82.1414 27.2465 82.5807 27.2938 82.9369 27.3411V32.8728L82.8657 32.9438C82.4857 32.8492 82.0464 32.7665 81.5477 32.6955C81.0728 32.6246 80.5266 32.5892 79.9092 32.5892C79.0306 32.5892 78.2351 32.731 77.5227 33.0147C76.8341 33.2984 76.2879 33.8539 75.8842 34.6813C75.5043 35.4851 75.3143 36.6907 75.3143 38.2982L75.2431 44.5392Z" fill="#280E71"/>
    <path d="M100.721 43.9718C100.057 44.2082 99.1304 44.421 97.9431 44.6101C96.7795 44.7756 95.3903 44.8583 93.7756 44.8583C91.7334 44.8583 89.988 44.5983 88.5395 44.0782C87.1147 43.5345 86.0342 42.6244 85.2981 41.3478C84.562 40.0476 84.1939 38.2509 84.1939 35.9579C84.1939 32.8374 84.9063 30.5797 86.3311 29.185C87.7796 27.7902 90.0118 27.0928 93.0276 27.0928C95.1885 27.0928 96.8864 27.4002 98.1212 28.0148C99.3797 28.6294 100.27 29.5041 100.793 30.6388C101.339 31.7499 101.612 33.0738 101.612 34.6104C101.612 35.0595 101.588 35.5442 101.541 36.0642C101.517 36.5843 101.458 37.0926 101.363 37.589L101.22 37.7309H89.5012C89.6674 38.771 90.1542 39.4566 90.9616 39.7876C91.7928 40.1185 93.1344 40.284 94.9867 40.284C96.2215 40.284 97.2426 40.2604 98.0499 40.2131C98.8811 40.1422 99.7241 40.0476 100.579 39.9294L100.721 40.0358V43.9718ZM96.6608 34.0076C96.6608 33.4402 96.5658 32.9556 96.3758 32.5537C96.2096 32.1282 95.8653 31.809 95.3428 31.5963C94.8204 31.3599 94.0487 31.2417 93.0276 31.2417C91.5315 31.2417 90.5461 31.5017 90.0711 32.0218C89.62 32.5182 89.3944 33.1802 89.3944 34.0076H96.6608Z" fill="#280E71"/>
    <path d="M115.47 44.5392L115.256 42.0215H115.114C114.71 42.9671 114.129 43.6763 113.369 44.1491C112.632 44.6219 111.552 44.8583 110.127 44.8583C107.824 44.8583 106.138 44.1964 105.069 42.8726C104.001 41.5251 103.443 39.5039 103.395 36.8089C103.371 34.3976 103.621 32.4828 104.143 31.0644C104.666 29.646 105.485 28.6294 106.601 28.0148C107.717 27.4002 109.142 27.0928 110.875 27.0928C111.778 27.0928 112.597 27.1756 113.333 27.3411C114.069 27.4829 114.663 27.6838 115.114 27.9439L115.185 27.9084V20.6746H120.884V44.5392H115.47ZM111.979 40.0358C112.929 40.0358 113.701 39.7403 114.295 39.1493C114.888 38.5583 115.185 37.5772 115.185 36.2061V32.4828C114.307 32.1282 113.274 31.9509 112.086 31.9509C110.97 31.9509 110.163 32.2227 109.664 32.7665C109.189 33.2865 108.952 34.3503 108.952 35.9579C108.952 37.329 109.142 38.3573 109.522 39.0429C109.925 39.7048 110.745 40.0358 111.979 40.0358Z" fill="#280E71"/>
    <path d="M130.543 20.8519C130.615 21.7029 130.65 22.4121 130.65 22.9795C130.65 23.3104 130.638 23.6532 130.615 24.0078C130.615 24.3388 130.591 24.717 130.543 25.1425C130.045 25.2371 129.558 25.308 129.083 25.3553C128.608 25.4026 128.133 25.4262 127.658 25.4262C127.207 25.4262 126.744 25.4026 126.269 25.3553C125.818 25.308 125.355 25.2371 124.88 25.1425C124.832 24.7406 124.797 24.3742 124.773 24.0433C124.749 23.6887 124.737 23.3459 124.737 23.0149C124.737 22.7076 124.749 22.3766 124.773 22.022C124.797 21.6674 124.832 21.2774 124.88 20.8519C125.355 20.7337 125.83 20.6627 126.305 20.6391C126.803 20.5918 127.29 20.5682 127.765 20.5682C128.216 20.5682 128.667 20.5918 129.119 20.6391C129.594 20.6627 130.068 20.7337 130.543 20.8519ZM130.543 44.5392H124.844V27.2701H130.543V44.5392Z" fill="#280E71"/>
    <path d="M147.987 39.5393V44.1491C147.393 44.3855 146.515 44.5628 145.351 44.681C144.188 44.7992 142.953 44.8583 141.647 44.8583C139.771 44.8583 138.203 44.5983 136.945 44.0782C135.71 43.5581 134.784 42.6598 134.167 41.3833C133.573 40.1067 133.264 38.3337 133.24 36.0642C133.24 33.7239 133.561 31.9036 134.202 30.6034C134.867 29.3032 135.829 28.393 137.087 27.873C138.346 27.3529 139.854 27.0928 141.611 27.0928C142.656 27.0928 143.76 27.1638 144.924 27.3056C146.087 27.4474 147.037 27.6366 147.773 27.873L147.809 32.6246L147.702 32.6955C146.99 32.5537 146.23 32.4473 145.422 32.3764C144.615 32.3055 143.82 32.27 143.036 32.27C141.445 32.27 140.341 32.5655 139.723 33.1565C139.106 33.7475 138.797 34.7404 138.797 36.1352C138.797 37.199 138.928 37.9909 139.189 38.511C139.45 39.0311 139.89 39.3739 140.507 39.5393C141.124 39.7048 141.967 39.7876 143.036 39.7876C143.867 39.7876 144.663 39.7521 145.422 39.6812C146.182 39.6103 146.99 39.5275 147.845 39.4329L147.987 39.5393Z" fill="#280E71"/>
    <path d="M151.54 39.362V31.9154H149.403V27.3056H152.074L153.143 23.0858H157.239V27.3056H161.122V31.9154H157.239V38.1209C157.239 38.7829 157.322 39.2438 157.489 39.5039C157.655 39.7403 158.035 39.8585 158.628 39.8585C159.008 39.8585 159.412 39.8467 159.839 39.823C160.267 39.7757 160.694 39.7285 161.122 39.6812L161.229 39.7521V44.3619C160.089 44.6929 158.581 44.8583 156.705 44.8583C154.829 44.8583 153.499 44.4328 152.716 43.5818C151.932 42.7307 151.54 41.3242 151.54 39.362Z" fill="#280E71"/>
    <path d="M163.19 36.0288C163.19 32.861 163.867 30.5797 165.221 29.185C166.574 27.7902 168.866 27.0928 172.095 27.0928C174.256 27.0928 175.99 27.4002 177.296 28.0148C178.602 28.6294 179.54 29.5987 180.11 30.9225C180.703 32.2227 181 33.9248 181 36.0288C181 38.1091 180.703 39.7994 180.11 41.0996C179.54 42.3998 178.602 43.3572 177.296 43.9718C175.99 44.5628 174.256 44.8583 172.095 44.8583C168.866 44.8583 166.574 44.1728 165.221 42.8017C163.867 41.4069 163.19 39.1493 163.19 36.0288ZM172.095 40.0003C173.472 40.0003 174.399 39.7048 174.873 39.1138C175.372 38.4992 175.621 37.4354 175.621 35.9224C175.621 34.4804 175.372 33.452 174.873 32.8374C174.399 32.1991 173.472 31.8799 172.095 31.8799C170.765 31.8799 169.839 32.1991 169.317 32.8374C168.818 33.452 168.569 34.4804 168.569 35.9224C168.569 37.4354 168.818 38.4992 169.317 39.1138C169.839 39.7048 170.765 40.0003 172.095 40.0003Z" fill="#280E71"/>
    <path d="M16.5427 1.63416L23.416 1.62505L23.4982 44.327L16.6249 44.3362L16.5427 1.63416Z" fill="#280E71"/>
    <path d="M26.2826 19.7715L33.156 19.7624L33.2031 44.2704L26.3298 44.2795L26.2826 19.7715Z" fill="#280E71"/>
    <path d="M36.0182 32.6951L42.8915 32.686L42.9138 44.2687L36.0405 44.2778L36.0182 32.6951Z" fill="#280E71"/>
    <path d="M7.05041 26.7061C5.40706 23.7722 4.95349 20.4756 5.75765 17.31C6.56181 14.1443 8.58042 11.28 11.5112 9.14594C14.4419 7.01191 18.127 5.72301 22.0147 5.47228C25.9024 5.22155 29.7833 6.02248 33.0763 7.75513C36.3693 9.48777 38.8972 12.0589 40.2813 15.0834C41.6655 18.1079 41.8314 21.4231 40.7542 24.5324C39.6771 27.6417 37.4148 30.3778 34.3063 32.331C31.1977 34.2842 27.4102 35.3493 23.5109 35.3668L23.4615 27.8105C25.3925 27.8018 27.2682 27.2743 28.8076 26.3071C30.347 25.3398 31.4674 23.9848 32.0008 22.445C32.5342 20.9052 32.452 19.2635 31.7666 17.7657C31.0811 16.2679 29.8293 14.9946 28.1985 14.1366C26.5677 13.2785 24.6458 12.8819 22.7206 13.006C20.7953 13.1302 18.9703 13.7685 17.519 14.8253C16.0676 15.8821 15.068 17.3006 14.6697 18.8683C14.2715 20.436 14.4961 22.0686 15.3099 23.5215L7.05041 26.7061Z" fill="#0950BA"/>
    </svg>
    