<svg width="181" height="55" viewBox="0 0 181 55" fill="none" xmlns="http://www.w3.org/2000/svg">
    <g clip-path="url(#clip0_2_93)">
    <path d="M91.1065 52.7492C91.5355 52.5728 91.9743 52.4649 92.4228 52.4257C95.406 52.2296 97.1121 51.8767 97.541 51.3669C97.9701 50.8374 98.1845 48.3176 98.1845 43.8076L98.1553 40.7192V37.4838L98.0383 33.9248L98.0968 31.8365L98.0675 29.5423V26.8363L98.009 25.6304L98.0675 24.1009C98.087 23.748 98.0968 23.3361 98.0968 22.8655C98.0968 21.6302 98.0383 20.3262 97.9213 18.9535C97.8433 18.679 97.7361 18.4143 97.5995 18.1594C96.8781 17.7869 95.7082 17.5417 94.0898 17.4241C92.491 17.2868 91.5843 17.1397 91.3698 16.9829C91.2138 16.8652 91.1261 16.5613 91.1065 16.0711H93.5633L101.314 16.2475C103.303 16.2475 105.955 16.1887 109.269 16.0711C109.269 16.3848 109.25 16.679 109.211 16.9535C108.821 17.0516 108.168 17.1593 107.251 17.2771C105.399 17.4927 104.268 17.6986 103.859 17.8946C103.605 17.9927 103.42 18.1594 103.303 18.3947C103.108 18.7477 102.991 19.4045 102.952 20.3654L102.806 24.1597L102.923 37.2485V42.4253C102.884 44.0528 102.864 45.1606 102.864 45.7489C102.864 47.9451 102.913 49.3472 103.01 49.9551C103.127 50.5629 103.313 51.0041 103.566 51.2786C103.839 51.5336 104.278 51.7394 104.882 51.8963C105.779 52.112 106.481 52.2296 106.988 52.2492C108.08 52.2885 108.772 52.4454 109.065 52.7199C109.123 52.9748 109.152 53.1905 109.152 53.3669V53.6022C107.378 53.661 106.072 53.6905 105.233 53.6905C104.746 53.6905 103.878 53.661 102.63 53.6022L98.5939 53.661L91.7208 53.6317H91.165L91.1065 52.7492Z" fill="black"/>
    <path d="M112.329 46.2195C113.05 48.0823 113.596 49.2883 113.967 49.8373C114.708 50.955 115.595 51.8277 116.628 52.4551C117.662 53.063 118.783 53.3669 119.992 53.3669C121.103 53.3669 122.205 52.8866 123.297 51.9256C124.077 51.2002 124.467 50.357 124.467 49.3962C124.467 48.1216 124.008 46.9451 123.092 45.8666C122.175 44.8077 120.43 43.7978 117.857 42.837C115.302 41.8566 113.586 40.8173 112.709 39.7193C111.831 38.6211 111.393 37.3662 111.393 35.9544C111.393 34.6209 111.753 33.4445 112.475 32.4247C113.196 31.4051 114.191 30.6404 115.458 30.1306C116.726 29.6011 117.895 29.3363 118.968 29.3363C120.352 29.3363 121.59 29.4443 122.682 29.6599C123.794 29.8756 124.749 30.209 125.549 30.66C125.705 31.6601 125.831 33.1307 125.929 35.0719L125.987 36.0132C125.734 36.0329 125.519 36.0426 125.344 36.0426H124.934C124.349 34.4151 123.453 33.1307 122.244 32.1895C121.054 31.2286 119.875 30.7483 118.705 30.7483C117.535 30.7483 116.589 31.111 115.868 31.8365C115.146 32.5425 114.786 33.4738 114.786 34.6308C114.786 35.5131 115.078 36.2975 115.663 36.9838C116.248 37.6702 117.613 38.4544 119.758 39.3369C121.922 40.2193 123.492 41.0428 124.467 41.8076C125.461 42.5527 126.192 43.4645 126.66 44.5429C127.128 45.6215 127.362 46.6509 127.362 47.6313C127.362 48.9843 126.914 50.2492 126.017 51.4257C125.139 52.6021 124.028 53.4258 122.682 53.8963C121.356 54.3866 120.167 54.6318 119.114 54.6318C116.638 54.6318 114.357 54.1709 112.27 53.2493C112.075 53.0924 111.968 52.7983 111.948 52.3669C111.948 52.1904 111.929 51.9061 111.89 51.5139C111.578 48.8667 111.422 47.298 111.422 46.8078C111.422 46.5726 111.471 46.4157 111.568 46.3372C111.666 46.2588 111.919 46.2195 112.329 46.2195Z" fill="black"/>
    <path d="M135.335 24.6303L136.242 24.6598L136.358 27.4539L136.3 31.0717C136.671 31.0914 136.905 31.1012 137.003 31.1012C137.509 31.1012 138.474 31.062 139.897 30.9836C140.814 30.9247 141.692 30.8953 142.53 30.8953C142.92 30.8953 143.504 30.9052 144.284 30.9247C144.323 31.3169 144.343 31.6306 144.343 31.866C144.343 32.1208 144.284 32.5228 144.167 33.0719H143.671L139.137 33.219L136.885 33.2778L136.358 33.3365C136.203 33.8268 136.125 34.3954 136.125 35.0426L136.212 39.4545L136.154 47.2196C136.154 49.2589 136.417 50.6119 136.944 51.2786C137.451 51.9649 138.211 52.308 139.225 52.308C139.732 52.308 140.688 52.1511 142.092 51.8375C142.52 51.7394 143.095 51.4158 143.817 50.8669H144.08C144.256 50.8669 144.392 50.9257 144.49 51.0433C144.606 51.1414 144.665 51.2786 144.665 51.4551L144.636 51.661C143.797 52.5826 142.832 53.2591 141.74 53.6905C140.668 54.1023 139.235 54.3082 137.44 54.3082C136.173 54.3082 135.121 54.0141 134.282 53.4258C133.463 52.8375 132.936 52.1414 132.703 51.3374C132.469 50.5335 132.351 48.7785 132.351 46.0725L132.469 39.4545L132.44 36.2779V35.1014C132.44 34.5523 132.42 34.0032 132.381 33.4543L131.884 33.4248L129.485 33.5131L129.251 33.5425C129.037 33.5425 128.871 33.4934 128.754 33.3955C128.657 33.2974 128.608 33.1797 128.608 33.0424C128.608 32.8071 128.676 32.6209 128.813 32.4837C128.969 32.3268 129.417 32.0915 130.158 31.7777C130.665 31.562 131.25 31.16 131.913 30.5718C132.595 29.9639 133.17 29.2972 133.639 28.5717C133.872 28.1795 134.204 27.4344 134.633 26.3362C134.945 25.5323 135.178 24.9637 135.335 24.6303Z" fill="black"/>
    <path d="M165.244 49.6903C165.361 49.9452 165.42 50.1315 165.42 50.2492C165.42 50.5433 165.185 51.0629 164.718 51.808C164.112 52.7885 163.44 53.5041 162.699 53.9551C162.231 54.2494 161.587 54.3964 160.768 54.3964C159.365 54.3964 158.312 53.965 157.609 53.1022C157.181 52.5924 156.879 51.6806 156.703 50.3668L153.428 52.6611C152.277 53.3277 151.399 53.7493 150.795 53.9258C149.82 54.1806 148.65 54.3082 147.286 54.3082C146.291 54.3082 145.502 54.0141 144.916 53.4258C144.351 52.8179 144.068 52.0434 144.068 51.1021C144.068 49.7491 144.887 48.1314 146.525 46.249C148.183 44.3665 150.425 42.8272 153.252 41.6311C155.241 40.7879 156.46 40.2487 156.907 40.0134C156.947 39.3662 156.966 38.6604 156.966 37.8957C156.966 35.4053 156.616 33.7189 155.914 32.8366C155.232 31.9542 154.246 31.513 152.959 31.513C151.614 31.513 150.356 32.0425 149.187 33.1012C148.466 33.768 147.919 35.023 147.549 36.8661C147.432 37.376 147.208 37.925 146.876 38.5134C146.037 39.0623 145.365 39.3369 144.859 39.3369C144.429 39.3369 144.04 39.2094 143.688 38.9545C143.493 38.8173 143.395 38.6604 143.395 38.4839C143.395 37.9741 143.931 36.827 145.004 35.0426C146.096 33.2386 147.462 31.8953 149.098 31.0129C150.756 30.1109 152.199 29.6599 153.428 29.6599C155.104 29.6599 156.353 29.8168 157.172 30.1306C157.99 30.4247 158.712 30.9541 159.336 31.7189C159.96 32.4837 160.34 33.317 160.477 34.219C160.555 34.6504 160.594 36.1896 160.594 38.8368L160.505 43.5135L160.535 46.9255C160.535 47.3765 160.525 47.7589 160.505 48.0726C160.486 48.6412 160.477 49.0627 160.477 49.3374C160.477 49.9844 160.662 50.504 161.031 50.8962C161.403 51.2884 161.841 51.4844 162.348 51.4844C163.089 51.4844 163.723 51.1119 164.249 50.3668L164.601 49.8961C164.698 49.8373 164.912 49.7687 165.244 49.6903ZM156.644 48.8372C156.781 46.3471 156.85 44.592 156.85 43.5723C156.85 43.0429 156.82 42.3272 156.762 41.4252C155.456 41.8959 154.071 42.6115 152.609 43.5723C151.147 44.5332 149.986 45.6411 149.128 46.896C148.505 47.798 148.192 48.651 148.192 49.4549C148.192 50.2197 148.446 50.8571 148.953 51.3669C149.479 51.8767 150.132 52.1316 150.912 52.1316C151.517 52.1316 152.248 51.9159 153.106 51.4844C154.237 50.9159 155.416 50.0335 156.644 48.8372Z" fill="black"/>
    <path d="M171.169 24.6303L172.076 24.6598L172.194 27.4539L172.135 31.0717C172.505 31.0914 172.739 31.1012 172.837 31.1012C173.343 31.1012 174.308 31.062 175.731 30.9836C176.648 30.9247 177.526 30.8953 178.364 30.8953C178.754 30.8953 179.338 30.9052 180.118 30.9247C180.158 31.3169 180.177 31.6306 180.177 31.866C180.177 32.1208 180.118 32.5228 180.003 33.0719H179.505L174.971 33.219L172.72 33.2778L172.194 33.3365C172.037 33.8268 171.959 34.3954 171.959 35.0426L172.046 39.4545L171.988 47.2196C171.988 49.2589 172.251 50.6119 172.778 51.2786C173.285 51.9649 174.045 52.308 175.06 52.308C175.566 52.308 176.522 52.1511 177.926 51.8375C178.354 51.7394 178.93 51.4158 179.651 50.8669H179.914C180.09 50.8669 180.227 50.9257 180.324 51.0433C180.441 51.1414 180.499 51.2786 180.499 51.4551L180.47 51.661C179.631 52.5826 178.667 53.2591 177.574 53.6905C176.502 54.1023 175.069 54.3082 173.276 54.3082C172.007 54.3082 170.955 54.0141 170.117 53.4258C169.298 52.8375 168.771 52.1414 168.537 51.3374C168.303 50.5335 168.185 48.7785 168.185 46.0725L168.303 39.4545L168.274 36.2779V35.1014C168.274 34.5523 168.255 34.0032 168.215 33.4543L167.718 33.4248L165.319 33.5131L165.086 33.5425C164.871 33.5425 164.706 33.4934 164.589 33.3955C164.491 33.2974 164.442 33.1797 164.442 33.0424C164.442 32.8071 164.511 32.6209 164.648 32.4837C164.802 32.3268 165.252 32.0915 165.993 31.7777C166.499 31.562 167.084 31.16 167.747 30.5718C168.43 29.9639 169.005 29.2972 169.473 28.5717C169.706 28.1795 170.038 27.4344 170.467 26.3362C170.779 25.5323 171.014 24.9637 171.169 24.6303Z" fill="black"/>
    <path d="M30.2355 55H0V8.87096L28.457 0H32.9033L36.4604 2.66129V51.4516L30.2355 55Z" fill="black"/>
    <path d="M51.8005 55H82.036V8.87096L53.579 0H49.1326L45.5755 2.66129V51.4516L51.8005 55Z" fill="black"/>
    </g>
    <defs>
    <clipPath id="clip0_2_93">
    <rect width="181" height="55" fill="white"/>
    </clipPath>
    </defs>
    </svg>
    