<svg width="16" height="16" viewBox="0 0 16 16" fill="none" xmlns=" http://www.w3.org/2000/svg ">
<path d="M16 8C16 9.47191 15.5939 10.9153 14.8264 12.1713C14.059 13.4273 12.9599 14.4472 11.6501 15.1188C10.3403 15.7903 8.87065 16.0876 7.40284 15.9777C5.93504 15.8678 4.52599 15.3551 3.33079 14.496C2.13559 13.637 1.20057 12.4648 0.628635 11.1085C0.0566984 9.75228 -0.129979 8.26453 0.089149 6.80902C0.308277 5.35351 0.924714 3.98667 1.87062 2.85893C2.81652 1.73119 4.05521 0.886268 5.45037 0.417164L6.6365 3.94482C5.89039 4.19569 5.22796 4.64754 4.72211 5.25064C4.21625 5.85373 3.88659 6.5847 3.76941 7.36308C3.65222 8.14147 3.75205 8.93709 4.05791 9.66239C4.36378 10.3877 4.86381 11.0146 5.50298 11.474C6.14216 11.9334 6.89569 12.2076 7.68065 12.2663C8.46561 12.3251 9.25156 12.1661 9.95201 11.807C10.6525 11.4479 11.2402 10.9024 11.6507 10.2307C12.0611 9.55905 12.2783 8.78716 12.2783 8H16Z" fill="black"/>
</svg>